<svg width="190" height="330" viewBox="0 0 190 330" fill="none" xmlns="http://www.w3.org/2000/svg">
<path d="M23.2197 186.148C49.4842 193.343 55.6894 191.329 60.3701 198.369C60.9076 199.177 63.6519 203.308 63.103 208.609C62.6649 212.834 60.3119 216.094 58.832 217.527C49.8345 226.237 25.0763 215.581 10.8971 203.928C7.8059 201.386 -0.488685 194.571 1.18187 189.729C1.86652 187.746 3.99237 186.76 5.51801 186.078C12.263 183.06 19.259 185.063 23.2197 186.148Z" fill="url(#paint0_linear_410_747)"/>
<path d="M104.312 9.60449H98.7222V46.2883H104.312V9.60449Z" fill="url(#paint1_linear_410_747)"/>
<path d="M120.82 66.5569H82.2123C79.3653 66.5569 77.058 64.2496 77.058 61.4026V47.6045C77.058 44.7575 79.3653 42.4502 82.2123 42.4502H120.82C123.667 42.4502 125.974 44.7575 125.974 47.6045V61.4026C125.973 64.2496 123.666 66.5569 120.82 66.5569Z" fill="url(#paint2_linear_410_747)"/>
<path d="M189.037 146.737C189.037 169.022 170.97 187.089 148.684 187.089H54.3541C32.1599 187.089 14.0017 168.931 14.0017 146.737V125.775C14.0017 86.2873 46.3094 53.9785 85.7979 53.9785H117.242C156.729 53.9785 189.038 86.2862 189.038 125.775L189.037 146.737Z" fill="url(#paint3_linear_410_747)"/>
<path d="M161.5 142.911C159.21 144.043 156.642 144.636 154.034 144.636H48.9944C46.3859 144.636 43.8184 144.043 41.5283 142.911C35.9027 140.13 32.7282 134.515 33.5224 128.755L33.5806 128.336C36.2724 108.824 53.9433 93.8235 75.608 92.6961C84.7744 92.2191 94.3938 91.9727 104.427 92.0309C112.287 92.0765 119.885 92.307 127.2 92.6836C148.947 93.8041 166.748 108.746 169.45 128.331C169.469 128.472 169.489 128.613 169.508 128.753C170.301 134.515 167.126 140.13 161.5 142.911Z" fill="url(#paint4_linear_410_747)"/>
<path d="M73.8307 140.338C84.7698 140.338 93.6378 131.47 93.6378 120.531C93.6378 109.592 84.7698 100.724 73.8307 100.724C62.8916 100.724 54.0237 109.592 54.0237 120.531C54.0237 131.47 62.8916 140.338 73.8307 140.338Z" fill="url(#paint5_radial_410_747)"/>
<path d="M73.8322 134.755C81.684 134.755 88.0491 128.39 88.0491 120.539C88.0491 112.687 81.684 106.322 73.8322 106.322C65.9805 106.322 59.6154 112.687 59.6154 120.539C59.6154 128.39 65.9805 134.755 73.8322 134.755Z" fill="#EEFDFF"/>
<path d="M73.8351 132.476C80.4296 132.476 85.7755 127.13 85.7755 120.536C85.7755 113.941 80.4296 108.595 73.8351 108.595C67.2407 108.595 61.8948 113.941 61.8948 120.536C61.8948 127.13 67.2407 132.476 73.8351 132.476Z" fill="url(#paint6_linear_410_747)"/>
<path d="M81.4815 117.443C81.4815 119.887 79.5014 121.867 77.0579 121.867C74.6145 121.867 72.6344 119.885 72.6344 117.443C72.6344 115.001 74.6145 113.02 77.0579 113.02C79.5014 113.02 81.4815 115.001 81.4815 117.443Z" fill="#EEFDFF"/>
<path d="M72.0657 131.46C73.0408 131.46 73.8312 130.67 73.8312 129.694C73.8312 128.719 73.0408 127.929 72.0657 127.929C71.0906 127.929 70.3002 128.719 70.3002 129.694C70.3002 130.67 71.0906 131.46 72.0657 131.46Z" fill="#EEFDFF"/>
<path d="M67.6932 127.045C67.6932 127.532 67.2984 127.927 66.811 127.927C66.3237 127.927 65.9288 127.532 65.9288 127.045C65.9288 126.557 66.3237 126.162 66.811 126.162C67.2984 126.162 67.6932 126.558 67.6932 127.045Z" fill="#EEFDFF"/>
<path d="M127.344 140.338C138.283 140.338 147.151 131.47 147.151 120.531C147.151 109.592 138.283 100.724 127.344 100.724C116.405 100.724 107.537 109.592 107.537 120.531C107.537 131.47 116.405 140.338 127.344 140.338Z" fill="url(#paint7_radial_410_747)"/>
<path d="M127.339 134.755C135.191 134.755 141.556 128.39 141.556 120.539C141.556 112.687 135.191 106.322 127.339 106.322C119.487 106.322 113.122 112.687 113.122 120.539C113.122 128.39 119.487 134.755 127.339 134.755Z" fill="#EEFDFF"/>
<path d="M127.342 132.476C133.937 132.476 139.283 127.13 139.283 120.536C139.283 113.941 133.937 108.595 127.342 108.595C120.748 108.595 115.402 113.941 115.402 120.536C115.402 127.13 120.748 132.476 127.342 132.476Z" fill="url(#paint8_linear_410_747)"/>
<path d="M134.994 117.443C134.994 119.887 133.013 121.867 130.571 121.867C128.129 121.867 126.146 119.885 126.146 117.443C126.146 115.001 128.127 113.02 130.571 113.02C133.014 113.02 134.994 115.001 134.994 117.443Z" fill="#EEFDFF"/>
<path d="M125.579 131.46C126.554 131.46 127.344 130.67 127.344 129.694C127.344 128.719 126.554 127.929 125.579 127.929C124.604 127.929 123.813 128.719 123.813 129.694C123.813 130.67 124.604 131.46 125.579 131.46Z" fill="#EEFDFF"/>
<path d="M121.199 127.045C121.199 127.532 120.804 127.927 120.316 127.927C119.829 127.927 119.434 127.532 119.434 127.045C119.434 126.557 119.829 126.162 120.316 126.162C120.804 126.162 121.199 126.558 121.199 127.045Z" fill="#EEFDFF"/>
<path d="M108.675 7.16263C108.675 11.1177 105.469 14.3253 101.513 14.3253C97.5577 14.3253 94.3512 11.1188 94.3512 7.16263C94.3512 3.20761 97.5577 0 101.513 0C105.469 0 108.675 3.20647 108.675 7.16263Z" fill="url(#paint9_linear_410_747)"/>
<path d="M106.494 4.36577C106.494 5.57208 105.516 6.54901 104.309 6.54901C103.103 6.54901 102.125 5.57094 102.125 4.36577C102.125 3.15946 103.103 2.1814 104.309 2.1814C105.516 2.18254 106.494 3.15946 106.494 4.36577Z" fill="white"/>
<path d="M163.188 76.9498C163.283 80.2932 160.553 84.2927 157.427 84.6339C154.496 84.9546 152.156 81.9604 149.743 78.8726C147.363 75.8293 142.161 68.0105 144.233 65.7991C146.964 62.8836 162.963 69.0615 163.188 76.9498Z" fill="white"/>
<path d="M136.416 64.1986C137.791 64.1986 138.905 63.0842 138.905 61.7095C138.905 60.3349 137.791 59.2205 136.416 59.2205C135.041 59.2205 133.927 60.3349 133.927 61.7095C133.927 63.0842 135.041 64.1986 136.416 64.1986Z" fill="white"/>
<path d="M162.828 123.325C162.03 123.888 156.462 112.546 141.516 102.712C136.263 99.2546 131.076 96.791 131.385 96.0744C131.697 95.3475 137.538 96.6997 142.215 98.8689C157.115 105.782 163.778 122.655 162.828 123.325Z" fill="white"/>
<path d="M124.558 49.588C124.38 49.6131 124.266 48.5667 123.394 46.9498C123.394 46.9498 122.987 46.1932 122.521 45.5519C121.021 43.4865 115.934 43.5322 115.534 43.5356C107.612 43.6041 102.518 43.102 102.52 43.1499C102.522 43.1899 106.237 43.1146 108.96 43.0598C116.64 42.9035 121.216 42.4904 123.177 44.5478C123.991 45.4013 124.401 46.5127 124.401 46.5127C124.955 48.0212 124.77 49.5571 124.558 49.588Z" fill="white"/>
<path d="M122.909 153.133C122.715 155.03 121.136 156.492 119.237 156.675L92.9991 159.205C91.1015 159.387 89.2712 158.256 88.7178 156.431C88.4713 155.619 88.2819 154.783 88.1529 153.922C88.1176 153.685 88.1803 153.443 88.3287 153.253C88.477 153.063 88.6961 152.943 88.9358 152.919L122.038 149.727C122.274 149.704 122.508 149.779 122.687 149.934C122.866 150.09 122.972 150.312 122.982 150.548C123.022 151.423 122.996 152.286 122.909 153.133Z" fill="#EEFDFF"/>
<path d="M122.911 153.146C122.072 161.279 115.606 167.966 107.158 168.773C98.8261 169.579 91.3007 164.413 88.8268 156.762C89.4875 158.397 91.206 159.393 92.9986 159.214L119.244 156.687C121.14 156.499 122.713 155.042 122.911 153.146Z" fill="url(#paint10_linear_410_747)"/>
<path d="M164.25 212.073C164.25 212.313 164.25 212.544 164.24 212.764C164.157 214.965 163.642 216.621 163.391 217.365C156.169 239.428 151.841 251.062 145.773 260.474C144.725 262.099 143.624 263.66 142.44 265.19C140.889 267.234 139.191 269.225 137.304 271.28C133.111 275.84 126.77 277.904 124.727 278.617C117.254 281.259 110.65 280.776 106.259 280.819H105.494C101.091 280.776 94.4991 281.259 87.0261 278.617C84.9824 277.904 78.6311 275.84 74.449 271.28C62.9195 258.734 58.4864 248.305 48.3615 217.365C48.1207 216.653 47.638 215.111 47.5228 213.047C47.492 212.449 47.4805 211.852 47.5125 211.254C47.7327 207.555 49.231 203.927 51.8943 200.616C56.4541 194.936 63.4969 191.823 70.7816 191.791L105.883 191.644L140.345 191.508C147.787 191.476 154.997 194.6 159.724 200.354C162.009 203.141 163.465 206.149 164.001 209.252C164.074 209.692 164.136 210.143 164.179 210.583C164.219 211.076 164.25 211.569 164.25 212.073Z" fill="url(#paint11_linear_410_747)"/>
<path d="M105.874 191.648L70.773 191.795C63.4883 191.827 56.4455 194.94 51.8857 200.62C49.2235 203.933 47.7253 207.559 47.5039 211.259C47.6819 207.465 49.2441 203.744 52.0215 200.358C56.7376 194.603 63.9596 191.48 71.4006 191.512L105.874 191.648Z" fill="url(#paint12_linear_410_747)"/>
<path d="M140.761 243.359C140.249 216.132 136.564 210.747 141.998 204.27C142.622 203.526 145.809 199.727 151.05 198.757C155.227 197.985 159.017 199.322 160.811 200.338C171.706 206.51 168.473 233.27 161.296 250.162C159.732 253.846 155.533 263.726 150.417 263.49C148.321 263.393 146.774 261.631 145.69 260.361C140.892 254.741 140.839 247.464 140.761 243.359Z" fill="url(#paint13_linear_410_747)"/>
<path d="M145.77 260.473C144.723 262.098 143.622 263.659 142.437 265.189C142.059 264.801 141.724 264.413 141.42 264.057C136.62 258.439 136.567 251.165 136.494 247.057C135.981 219.827 132.292 214.45 137.731 207.972C138.13 207.491 139.587 205.761 141.956 204.325C136.589 210.782 140.247 216.211 140.761 243.358C140.834 247.466 140.897 254.74 145.687 260.369C145.718 260.4 145.75 260.431 145.77 260.473Z" fill="url(#paint14_linear_410_747)"/>
<path d="M161.139 220.694C160.985 217.768 160.436 215.617 159.338 211.313C157.903 205.682 156.102 202.938 157.272 201.851C158.033 201.143 159.532 201.621 159.872 201.73C165.018 203.372 166.611 213.027 166.39 219.069C166.254 222.768 165.352 226.904 163.996 227.087C163.783 227.116 163.251 227.088 162.871 226.752C161.358 225.415 161.256 222.918 161.139 220.694Z" fill="white"/>
<path d="M164.673 231.013C164.673 231.603 164.194 232.081 163.604 232.081C163.014 232.081 162.536 231.603 162.536 231.013C162.536 230.423 163.014 229.945 163.604 229.945C164.194 229.945 164.673 230.423 164.673 231.013Z" fill="white"/>
<path d="M104.314 330C135.238 330 160.307 319.737 160.307 307.076C160.307 294.416 135.238 284.153 104.314 284.153C73.3896 284.153 48.3206 294.416 48.3206 307.076C48.3206 319.737 73.3896 330 104.314 330Z" fill="url(#paint15_radial_410_747)"/>
<defs>
<linearGradient id="paint0_linear_410_747" x1="38.1674" y1="202.701" x2="140.002" y2="281.846" gradientUnits="userSpaceOnUse">
<stop offset="0.0397" stop-color="#685EEF"/>
<stop offset="1" stop-color="#FFF796"/>
</linearGradient>
<linearGradient id="paint1_linear_410_747" x1="90.1248" y1="29.6077" x2="106.895" y2="27.1621" gradientUnits="userSpaceOnUse">
<stop offset="0.0397" stop-color="#685EEF"/>
<stop offset="1" stop-color="#685EEF" stop-opacity="0.41"/>
</linearGradient>
<linearGradient id="paint2_linear_410_747" x1="85.8457" y1="72.1955" x2="115.606" y2="38.595" gradientUnits="userSpaceOnUse">
<stop offset="0.0397" stop-color="#685EEF"/>
<stop offset="1" stop-color="#C4C1F5"/>
</linearGradient>
<linearGradient id="paint3_linear_410_747" x1="42.744" y1="188.58" x2="160.674" y2="70.6502" gradientUnits="userSpaceOnUse">
<stop offset="0.0397" stop-color="#685EEF"/>
<stop offset="1" stop-color="#A8A0FF"/>
</linearGradient>
<linearGradient id="paint4_linear_410_747" x1="101.204" y1="144.466" x2="102.252" y2="97.301" gradientUnits="userSpaceOnUse">
<stop stop-color="#9747FF"/>
<stop offset="1" stop-color="#685EEF"/>
</linearGradient>
<radialGradient id="paint5_radial_410_747" cx="0" cy="0" r="1" gradientUnits="userSpaceOnUse" gradientTransform="translate(73.8303 120.531) scale(19.6021 19.6021)">
<stop offset="0.1296" stop-color="#3280FC"/>
<stop offset="1"/>
</radialGradient>
<linearGradient id="paint6_linear_410_747" x1="61.8939" y1="120.536" x2="85.7755" y2="120.536" gradientUnits="userSpaceOnUse">
<stop stop-color="#030D14"/>
<stop offset="1" stop-color="#0B2F45"/>
</linearGradient>
<radialGradient id="paint7_radial_410_747" cx="0" cy="0" r="1" gradientUnits="userSpaceOnUse" gradientTransform="translate(127.343 120.531) scale(19.6021 19.6021)">
<stop offset="0.1296" stop-color="#3280FC"/>
<stop offset="1"/>
</radialGradient>
<linearGradient id="paint8_linear_410_747" x1="115.401" y1="120.536" x2="139.283" y2="120.536" gradientUnits="userSpaceOnUse">
<stop stop-color="#030D14"/>
<stop offset="1" stop-color="#0B2F45"/>
</linearGradient>
<linearGradient id="paint9_linear_410_747" x1="86.4365" y1="9.36083" x2="108.63" y2="6.12425" gradientUnits="userSpaceOnUse">
<stop stop-color="#685EEF"/>
<stop offset="1" stop-color="#E6E5F4"/>
</linearGradient>
<linearGradient id="paint10_linear_410_747" x1="100.799" y1="162.793" x2="134.943" y2="128.648" gradientUnits="userSpaceOnUse">
<stop offset="0.0714" stop-color="#7167E9"/>
<stop offset="1" stop-color="#FFF796"/>
</linearGradient>
<linearGradient id="paint11_linear_410_747" x1="68.5503" y1="266.406" x2="159.017" y2="160.764" gradientUnits="userSpaceOnUse">
<stop offset="0.0397" stop-color="#685EEF"/>
<stop offset="0.0408" stop-color="#685EEF"/>
<stop offset="0.1607" stop-color="#685EEF"/>
<stop offset="0.2745" stop-color="#685EEF"/>
<stop offset="0.3793" stop-color="#685EEF"/>
<stop offset="0.4719" stop-color="#685EEF"/>
<stop offset="0.5423" stop-color="#685EEF"/>
<stop offset="0.8004" stop-color="#A8A0FF"/>
<stop offset="1" stop-color="#FFF796"/>
</linearGradient>
<linearGradient id="paint12_linear_410_747" x1="63.7563" y1="213.738" x2="118.159" y2="150.209" gradientUnits="userSpaceOnUse">
<stop offset="0.0397" stop-color="#06CFF1"/>
<stop offset="1" stop-color="#DEFA8E"/>
</linearGradient>
<linearGradient id="paint13_linear_410_747" x1="180.649" y1="250.628" x2="112.915" y2="201.088" gradientUnits="userSpaceOnUse">
<stop offset="0.0397" stop-color="#685EEF"/>
<stop offset="0.0734" stop-color="#7B72F3"/>
<stop offset="0.4151" stop-color="#918AFB"/>
<stop offset="0.6937" stop-color="#BCB8FF"/>
<stop offset="0.8955" stop-color="#D0CDFF"/>
<stop offset="1" stop-color="#FFF796"/>
</linearGradient>
<linearGradient id="paint14_linear_410_747" x1="120.958" y1="245.826" x2="168.961" y2="220.81" gradientUnits="userSpaceOnUse">
<stop offset="0.0397" stop-color="#685EEF"/>
<stop offset="1" stop-color="#D9D9CE"/>
</linearGradient>
<radialGradient id="paint15_radial_410_747" cx="0" cy="0" r="1" gradientUnits="userSpaceOnUse" gradientTransform="translate(104.314 307.077) scale(55.9931 22.9229)">
<stop stop-color="#685EEF"/>
<stop offset="1" stop-color="#685EEF" stop-opacity="0"/>
</radialGradient>
</defs>
</svg>
