<svg width="808" height="530" viewBox="0 0 808 530" fill="none" xmlns="http://www.w3.org/2000/svg">
<path opacity="0.15" fill-rule="evenodd" clip-rule="evenodd" d="M690.269 -121.206C615.119 -155.494 529.868 -141.528 442.801 -111.796C326.01 -71.914 88.339 -139.39 53.4999 -9.49996C18.4241 121.272 260.716 157.107 327 251C379.214 324.963 533.5 329 602 375.5C700.5 427.5 760.284 569.759 836.5 481.5C913.554 392.27 876.972 191.141 867.17 81.8302C857.724 -23.5109 774.739 -82.6641 690.269 -121.206Z" fill="#50E3C2"/>
<path d="M32.9737 43.6993C32.9737 43.6993 12.9943 48.0911 21.6146 51.5512C30.2349 55.0113 100.036 58.9067 108.921 57.9687C117.805 57.0306 120.696 48.0819 115.096 43.3318C109.496 38.5816 91.5748 38.0945 82.1625 47.8288C82.1625 47.8288 91.7979 24.5717 75.5426 15.945C59.2872 7.31843 38.8206 29.6312 32.9737 43.6993Z" fill="white"/>
<path d="M861.814 172.658C861.814 172.658 878.03 134.093 848.983 115.928C819.936 97.7621 797.348 100.708 789.552 101.387C781.755 102.066 733.286 120.226 752.363 157.518C752.363 157.518 747.008 152.968 743.73 154.858C740.453 156.748 740.456 156.749 740.456 156.749C740.456 156.749 728.147 151.03 715.888 156.74C703.628 162.453 708.749 166.593 710.575 168.813C712.402 171.034 710.79 170.602 710.79 170.602C710.79 170.602 690.528 170.019 682.364 173.367C674.199 176.716 666.743 181.295 692.471 184.727C718.199 188.159 731.567 188.629 731.567 188.629C731.567 188.629 707.819 188.149 706.608 192.67C705.396 197.191 761.117 201.046 772.053 201.555C782.99 202.064 834.693 198.959 845.244 198.327C845.244 198.327 835.205 202.211 841.986 204.028C848.766 205.845 881.095 197.551 885.747 195.683C890.4 193.815 877.872 191.495 877.872 191.495C877.872 191.495 882.294 184.028 879.89 177.501C877.487 170.974 864.941 170.034 861.814 172.658Z" fill="white"/>
<path d="M156.796 16.0039C156.433 16.0039 156.085 16.1484 155.831 16.4023C155.574 16.6602 155.429 17.0078 155.429 17.3672V19.5547C155.429 19.918 155.574 20.2656 155.831 20.5195C156.085 20.7773 156.433 20.9219 156.796 20.9219C157.16 20.9219 157.507 20.7773 157.761 20.5195C158.019 20.2656 158.163 19.918 158.163 19.5547V17.3672C158.163 17.0078 158.019 16.6602 157.761 16.4023C157.507 16.1484 157.16 16.0039 156.796 16.0039ZM151.363 21.4258C151.004 21.4258 150.656 21.5703 150.398 21.8242C150.145 22.0821 150 22.4297 150 22.793C150 23.1524 150.145 23.5 150.398 23.7578C150.656 24.0117 151.004 24.1563 151.363 24.1563H153.551C153.914 24.1563 154.258 24.0117 154.516 23.7578C154.773 23.5 154.914 23.1524 154.914 22.793C154.914 22.4297 154.773 22.0821 154.516 21.8242C154.258 21.5703 153.914 21.4258 153.551 21.4258H151.363ZM160.035 21.4258C159.672 21.4258 159.324 21.5703 159.07 21.8242C158.813 22.0821 158.668 22.4297 158.668 22.793C158.668 23.1524 158.813 23.5 159.07 23.7578C159.324 24.0117 159.672 24.1563 160.035 24.1563H162.219C162.582 24.1563 162.93 24.0117 163.184 23.7578C163.441 23.5 163.586 23.1524 163.586 22.793C163.586 22.4297 163.441 22.0821 163.184 21.8242C162.93 21.5703 162.582 21.4258 162.219 21.4258H160.035ZM156.797 24.6719C156.043 24.6719 155.43 25.2852 155.43 26.0391V28.2266V28.2227C155.43 28.586 155.575 28.9336 155.832 29.1914C156.086 29.4453 156.434 29.5899 156.797 29.5899C157.16 29.5899 157.508 29.4453 157.762 29.1914C158.02 28.9336 158.164 28.586 158.164 28.2227V26.0352V26.0391C158.164 25.2852 157.551 24.6719 156.797 24.6719Z" fill="#9B9B9B"/>
<path d="M768.796 29.0039C768.433 29.0039 768.085 29.1484 767.831 29.4023C767.574 29.6602 767.429 30.0078 767.429 30.3672V32.5547C767.429 32.918 767.574 33.2656 767.831 33.5195C768.085 33.7773 768.433 33.9219 768.796 33.9219C769.16 33.9219 769.507 33.7773 769.761 33.5195C770.019 33.2656 770.163 32.918 770.163 32.5547V30.3672C770.163 30.0078 770.019 29.6602 769.761 29.4023C769.507 29.1484 769.16 29.0039 768.796 29.0039ZM763.363 34.4258C763.004 34.4258 762.656 34.5703 762.398 34.8242C762.145 35.0821 762 35.4297 762 35.793C762 36.1524 762.145 36.5 762.398 36.7578C762.656 37.0117 763.004 37.1563 763.363 37.1563H765.551C765.914 37.1563 766.258 37.0117 766.516 36.7578C766.773 36.5 766.914 36.1524 766.914 35.793C766.914 35.4297 766.773 35.0821 766.516 34.8242C766.258 34.5703 765.914 34.4258 765.551 34.4258H763.363ZM772.035 34.4258C771.672 34.4258 771.324 34.5703 771.07 34.8242C770.813 35.0821 770.668 35.4297 770.668 35.793C770.668 36.1524 770.813 36.5 771.07 36.7578C771.324 37.0117 771.672 37.1563 772.035 37.1563H774.219C774.582 37.1563 774.93 37.0117 775.184 36.7578C775.441 36.5 775.586 36.1524 775.586 35.793C775.586 35.4297 775.441 35.0821 775.184 34.8242C774.93 34.5703 774.582 34.4258 774.219 34.4258H772.035ZM768.797 37.6719C768.043 37.6719 767.43 38.2852 767.43 39.0391V41.2266V41.2227C767.43 41.586 767.575 41.9336 767.832 42.1914C768.086 42.4453 768.434 42.5899 768.797 42.5899C769.16 42.5899 769.508 42.4453 769.762 42.1914C770.02 41.9336 770.164 41.586 770.164 41.2227V39.0352V39.0391C770.164 38.2852 769.551 37.6719 768.797 37.6719Z" fill="#9B9B9B"/>
<path d="M558.796 311.004C558.433 311.004 558.085 311.148 557.831 311.402C557.574 311.66 557.429 312.008 557.429 312.367V314.555C557.429 314.918 557.574 315.266 557.831 315.52C558.085 315.777 558.433 315.922 558.796 315.922C559.16 315.922 559.507 315.777 559.761 315.52C560.019 315.266 560.163 314.918 560.163 314.555V312.367C560.163 312.008 560.019 311.66 559.761 311.402C559.507 311.148 559.16 311.004 558.796 311.004ZM553.363 316.426C553.004 316.426 552.656 316.57 552.398 316.824C552.145 317.082 552 317.43 552 317.793C552 318.152 552.145 318.5 552.398 318.758C552.656 319.012 553.004 319.156 553.363 319.156H555.551C555.914 319.156 556.258 319.012 556.516 318.758C556.773 318.5 556.914 318.152 556.914 317.793C556.914 317.43 556.773 317.082 556.516 316.824C556.258 316.57 555.914 316.426 555.551 316.426H553.363ZM562.035 316.426C561.672 316.426 561.324 316.57 561.07 316.824C560.813 317.082 560.668 317.43 560.668 317.793C560.668 318.152 560.813 318.5 561.07 318.758C561.324 319.012 561.672 319.156 562.035 319.156H564.219C564.582 319.156 564.93 319.012 565.184 318.758C565.441 318.5 565.586 318.152 565.586 317.793C565.586 317.43 565.441 317.082 565.184 316.824C564.93 316.57 564.582 316.426 564.219 316.426H562.035ZM558.797 319.672C558.043 319.672 557.43 320.285 557.43 321.039V323.227V323.223C557.43 323.586 557.575 323.934 557.832 324.191C558.086 324.445 558.434 324.59 558.797 324.59C559.16 324.59 559.508 324.445 559.762 324.191C560.02 323.934 560.164 323.586 560.164 323.223V321.035V321.039C560.164 320.285 559.551 319.672 558.797 319.672Z" fill="#9B9B9B"/>
<path d="M440.796 60.0039C440.433 60.0039 440.085 60.1484 439.831 60.4023C439.574 60.6602 439.429 61.0078 439.429 61.3672V63.5547C439.429 63.918 439.574 64.2656 439.831 64.5195C440.085 64.7773 440.433 64.9219 440.796 64.9219C441.16 64.9219 441.507 64.7773 441.761 64.5195C442.019 64.2656 442.163 63.918 442.163 63.5547V61.3672C442.163 61.0078 442.019 60.6602 441.761 60.4023C441.507 60.1484 441.16 60.0039 440.796 60.0039ZM435.363 65.4258C435.004 65.4258 434.656 65.5703 434.398 65.8242C434.145 66.0821 434 66.4297 434 66.793C434 67.1524 434.145 67.5 434.398 67.7578C434.656 68.0117 435.004 68.1563 435.363 68.1563H437.551C437.914 68.1563 438.258 68.0117 438.516 67.7578C438.773 67.5 438.914 67.1524 438.914 66.793C438.914 66.4297 438.773 66.0821 438.516 65.8242C438.258 65.5703 437.914 65.4258 437.551 65.4258H435.363ZM444.035 65.4258C443.672 65.4258 443.324 65.5703 443.07 65.8242C442.813 66.0821 442.668 66.4297 442.668 66.793C442.668 67.1524 442.813 67.5 443.07 67.7578C443.324 68.0117 443.672 68.1563 444.035 68.1563H446.219C446.582 68.1563 446.93 68.0117 447.184 67.7578C447.441 67.5 447.586 67.1524 447.586 66.793C447.586 66.4297 447.441 66.0821 447.184 65.8242C446.93 65.5703 446.582 65.4258 446.219 65.4258H444.035ZM440.797 68.6719C440.043 68.6719 439.43 69.2852 439.43 70.0391V72.2266V72.2227C439.43 72.586 439.575 72.9336 439.832 73.1914C440.086 73.4453 440.434 73.5899 440.797 73.5899C441.16 73.5899 441.508 73.4453 441.762 73.1914C442.02 72.9336 442.164 72.586 442.164 72.2227V70.0352V70.0391C442.164 69.2852 441.551 68.6719 440.797 68.6719Z" fill="#9B9B9B"/>
<path d="M637.796 155.004C637.433 155.004 637.085 155.148 636.831 155.402C636.574 155.66 636.429 156.008 636.429 156.367V158.555C636.429 158.918 636.574 159.266 636.831 159.52C637.085 159.777 637.433 159.922 637.796 159.922C638.16 159.922 638.507 159.777 638.761 159.52C639.019 159.266 639.163 158.918 639.163 158.555V156.367C639.163 156.008 639.019 155.66 638.761 155.402C638.507 155.148 638.16 155.004 637.796 155.004ZM632.363 160.426C632.004 160.426 631.656 160.57 631.398 160.824C631.145 161.082 631 161.43 631 161.793C631 162.152 631.145 162.5 631.398 162.758C631.656 163.012 632.004 163.156 632.363 163.156H634.551C634.914 163.156 635.258 163.012 635.516 162.758C635.773 162.5 635.914 162.152 635.914 161.793C635.914 161.43 635.773 161.082 635.516 160.824C635.258 160.57 634.914 160.426 634.551 160.426H632.363ZM641.035 160.426C640.672 160.426 640.324 160.57 640.07 160.824C639.813 161.082 639.668 161.43 639.668 161.793C639.668 162.152 639.813 162.5 640.07 162.758C640.324 163.012 640.672 163.156 641.035 163.156H643.219C643.582 163.156 643.93 163.012 644.184 162.758C644.441 162.5 644.586 162.152 644.586 161.793C644.586 161.43 644.441 161.082 644.184 160.824C643.93 160.57 643.582 160.426 643.219 160.426H641.035ZM637.797 163.672C637.043 163.672 636.43 164.285 636.43 165.039V167.227V167.223C636.43 167.586 636.575 167.934 636.832 168.191C637.086 168.445 637.434 168.59 637.797 168.59C638.16 168.59 638.508 168.445 638.762 168.191C639.02 167.934 639.164 167.586 639.164 167.223V165.035V165.039C639.164 164.285 638.551 163.672 637.797 163.672Z" fill="#9B9B9B"/>
<path d="M765.796 404.004C765.433 404.004 765.085 404.148 764.831 404.402C764.574 404.66 764.429 405.008 764.429 405.367V407.555C764.429 407.918 764.574 408.266 764.831 408.52C765.085 408.777 765.433 408.922 765.796 408.922C766.16 408.922 766.507 408.777 766.761 408.52C767.019 408.266 767.163 407.918 767.163 407.555V405.367C767.163 405.008 767.019 404.66 766.761 404.402C766.507 404.148 766.16 404.004 765.796 404.004ZM760.363 409.426C760.004 409.426 759.656 409.57 759.398 409.824C759.145 410.082 759 410.43 759 410.793C759 411.152 759.145 411.5 759.398 411.758C759.656 412.012 760.004 412.156 760.363 412.156H762.551C762.914 412.156 763.258 412.012 763.516 411.758C763.773 411.5 763.914 411.152 763.914 410.793C763.914 410.43 763.773 410.082 763.516 409.824C763.258 409.57 762.914 409.426 762.551 409.426H760.363ZM769.035 409.426C768.672 409.426 768.324 409.57 768.07 409.824C767.813 410.082 767.668 410.43 767.668 410.793C767.668 411.152 767.813 411.5 768.07 411.758C768.324 412.012 768.672 412.156 769.035 412.156H771.219C771.582 412.156 771.93 412.012 772.184 411.758C772.441 411.5 772.586 411.152 772.586 410.793C772.586 410.43 772.441 410.082 772.184 409.824C771.93 409.57 771.582 409.426 771.219 409.426H769.035ZM765.797 412.672C765.043 412.672 764.43 413.285 764.43 414.039V416.227V416.223C764.43 416.586 764.575 416.934 764.832 417.191C765.086 417.445 765.434 417.59 765.797 417.59C766.16 417.59 766.508 417.445 766.762 417.191C767.02 416.934 767.164 416.586 767.164 416.223V414.035V414.039C767.164 413.285 766.551 412.672 765.797 412.672Z" fill="#9B9B9B"/>
</svg>
