<svg width="143" height="70" viewBox="0 0 143 70" fill="none" xmlns="http://www.w3.org/2000/svg">
<path d="M23.4759 12.426C23.4759 7.47695 24.73 4.15146 27.2381 2.44953C29.6118 0.85957 34.0794 0.0645912 40.6408 0.0645905H44.0334L44.0334 6.41323C44.0334 11.4742 42.7458 15.0796 40.1705 17.2295C37.5504 19.3793 33.0381 20.4542 26.6334 20.4542H23.4759L23.4759 12.426Z" fill="#F8A3DA"/>
<path d="M0 9.01197C0 4.03479 4.03481 0 9.01199 0C13.9892 0 18.024 4.0348 18.024 9.01199V36.9423C18.024 41.9195 13.9892 45.9543 9.01199 45.9543C4.03481 45.9543 0 41.9195 0 36.9423V9.01197Z" fill="#F86BC2"/>
<path d="M26.4783 23.4479H23.3207V31.8456C23.3207 36.8842 24.5748 40.3777 27.0829 42.3259C29.591 44.2518 34.0586 45.2147 40.4856 45.2147H43.8783V38.5637C43.8783 33.3908 42.5906 29.6062 40.0153 27.2101C37.3057 24.702 32.7933 23.4479 26.4783 23.4479Z" fill="#F86BC2"/>
<path d="M50.835 14.005C50.835 6.89473 56.599 1.13075 63.7093 1.13075C66.5534 1.13075 68.859 3.43635 68.859 6.28045V34.2108C68.859 41.321 63.095 47.085 55.9847 47.085C53.1406 47.085 50.835 44.7794 50.835 41.9353V14.005Z" fill="#50E3C2"/>
<path d="M71.6105 19.4301H85.6444V20.1717C85.6444 24.7773 81.9108 28.5109 77.3052 28.5109H71.6105V19.4301Z" fill="#F86BC2"/>
<path d="M73.3028 1.23061H91.9457V13.9279H88.4523C82.3835 13.9279 78.2407 12.9762 76.0237 11.0727C74.2098 9.50513 73.3028 6.97463 73.3028 3.48119V1.23061Z" fill="#1877F2"/>
<path d="M97.5622 36.99C97.5622 34.9522 98.4132 32.78 100.115 30.4734L101.492 28.6595L125.745 0.107384L142.204 0.10738V9.78151C142.204 12.2224 140.849 15.1224 138.14 18.4815L113.417 45.8243L97.5622 45.8243L97.5622 36.99ZM142.204 39.8788C142.204 42.8124 141.868 44.7942 141.197 45.8243H120.941L138.879 26.4089C140.738 27.4614 141.812 29.9695 142.104 33.9332C142.193 35.1649 142.238 36.4637 142.238 37.8297L142.204 39.8788Z" fill="#1877F2"/>
<path d="M98.7492 0.155209C98.0326 1.20772 97.6743 3.17838 97.6743 6.06718C97.6743 13.0764 98.794 17.2305 101.033 18.5293L102.041 18.5293L119.307 0.155209H98.7492Z" fill="#1877F2"/>
<path d="M98.7492 0.155209C98.0326 1.20772 97.6743 3.17838 97.6743 6.06718C97.6743 13.0764 98.794 17.2305 101.033 18.5293L102.041 18.5293L119.307 0.155209H98.7492Z" fill="#87B6F8"/>
<mask id="path-2-inside-1_515_824" fill="white">
<path d="M1.86798 68.3158C1.40099 68.3158 1.03962 68.1823 0.783884 67.9155C0.528149 67.6375 0.344687 67.2762 0.233498 66.8314C0.122308 66.3755 0.0555945 65.8752 0.0333567 65.3303C0.0111188 64.7855 0 64.2407 0 63.6959C0 63.429 0 63.0843 0 62.6618C0.0111189 62.2282 0.0166788 61.789 0.0166788 61.3442C0.0277977 60.8883 0.0389166 60.4881 0.0500355 60.1434C0.0611544 59.7876 0.0722732 59.5429 0.0833921 59.4095C0.10563 58.609 0.272413 57.9474 0.583743 57.4248C0.895073 56.9022 1.35651 56.6409 1.96805 56.6409C2.66854 56.6409 3.14665 56.9467 3.40239 57.5582C3.66924 58.1586 3.80267 59.0259 3.80267 60.16C3.80267 60.2824 3.80267 60.4491 3.80267 60.6604C4.01393 60.2712 4.26967 59.8487 4.56988 59.3928C4.88121 58.937 5.22033 58.5033 5.58726 58.0919C5.95418 57.6805 6.34335 57.347 6.75475 57.0912C7.16615 56.8244 7.58311 56.6909 8.00563 56.6909C8.52822 56.6909 8.95629 56.8911 9.28986 57.2914C9.63455 57.6805 9.80689 58.1642 9.80689 58.7424C9.80689 59.265 9.65123 59.7764 9.3399 60.2768C9.03969 60.766 8.62273 61.2108 8.08902 61.6111C7.55531 62.0113 6.93265 62.3394 6.22104 62.5951C6.63244 62.7841 7.0494 63.012 7.47192 63.2789C7.89444 63.5346 8.27804 63.8237 8.62273 64.1462C8.97853 64.4575 9.26206 64.7966 9.47332 65.1636C9.68458 65.5305 9.79021 65.9252 9.79021 66.3477C9.79021 66.8147 9.6957 67.1928 9.50668 67.4819C9.32878 67.7709 9.09528 67.9822 8.80619 68.1156C8.51709 68.2491 8.21133 68.3158 7.88888 68.3158C7.32181 68.3158 6.79366 68.1323 6.30443 67.7654C5.8152 67.3985 5.35932 66.9204 4.9368 66.3311C4.5254 65.7417 4.1418 65.1246 3.786 64.4797C3.786 64.969 3.76376 65.4415 3.71928 65.8974C3.68592 66.3533 3.60809 66.7647 3.48578 67.1316C3.36347 67.4985 3.17445 67.7876 2.91872 67.9989C2.66298 68.2101 2.31274 68.3158 1.86798 68.3158Z"/>
<path d="M13.1986 60.2268C12.6538 60.2268 12.1924 60.0322 11.8143 59.643C11.4363 59.2427 11.2473 58.7591 11.2473 58.192C11.2473 57.814 11.3307 57.4748 11.4974 57.1746C11.6753 56.8744 11.9088 56.6353 12.1979 56.4574C12.4981 56.2684 12.8317 56.1739 13.1986 56.1739C13.5544 56.1739 13.8769 56.2684 14.166 56.4574C14.4662 56.6353 14.7053 56.8744 14.8832 57.1746C15.0611 57.4748 15.15 57.814 15.15 58.192C15.15 58.57 15.0611 58.9147 14.8832 59.2261C14.7053 59.5263 14.4662 59.7709 14.166 59.9599C13.8769 60.1378 13.5544 60.2268 13.1986 60.2268ZM13.1986 68.3158C12.7539 68.3158 12.4203 68.1879 12.1979 67.9322C11.9867 67.6764 11.8421 67.2873 11.7643 66.7647C11.6976 66.231 11.6587 65.5472 11.6475 64.7132C11.6475 63.8793 11.6809 63.1955 11.7476 62.6618C11.8255 62.1281 11.9756 61.7389 12.1979 61.4943C12.4203 61.2386 12.7539 61.1107 13.1986 61.1107C13.6434 61.1107 13.9714 61.2386 14.1827 61.4943C14.405 61.7389 14.5552 62.1281 14.633 62.6618C14.7108 63.1955 14.7497 63.8793 14.7497 64.7132C14.7608 65.5472 14.7275 66.231 14.6497 66.7647C14.5718 67.2873 14.4217 67.6764 14.1993 67.9322C13.977 68.1879 13.6434 68.3158 13.1986 68.3158Z"/>
<path d="M20.2422 68.3158C19.4194 68.3158 18.7078 68.1212 18.1073 67.732C17.518 67.3429 17.0622 66.837 16.7397 66.2143C16.4284 65.5916 16.2727 64.9412 16.2727 64.2629C16.2727 63.3957 16.4451 62.684 16.7897 62.1281C17.1456 61.5721 17.5959 61.1607 18.1407 60.8939C18.6855 60.6159 19.2526 60.4769 19.8419 60.4769C20.1199 60.4769 20.4034 60.5103 20.6925 60.577C20.9816 60.6326 21.254 60.7327 21.5097 60.8772C21.4653 60.3991 21.3652 59.9321 21.2095 59.4762C21.065 59.0092 20.9927 58.5367 20.9927 58.0586C20.9927 57.5693 21.1428 57.208 21.443 56.9745C21.7432 56.741 22.0657 56.6242 22.4104 56.6242C22.8106 56.6242 23.1553 56.7521 23.4444 57.0078C23.7335 57.2636 23.9781 57.6027 24.1783 58.0252C24.3895 58.4477 24.5563 58.9258 24.6786 59.4596C24.8009 59.9821 24.8899 60.5214 24.9455 61.0774C25.0011 61.6333 25.0289 62.167 25.0289 62.6785C25.0289 62.8453 25.0178 63.101 24.9955 63.4457C24.9844 63.7904 24.9344 64.174 24.8454 64.5965C24.7565 65.019 24.6119 65.4471 24.4118 65.8807C24.2228 66.3144 23.9503 66.7147 23.5945 67.0816C23.2498 67.4485 22.8051 67.7487 22.2603 67.9822C21.7154 68.2046 21.0427 68.3158 20.2422 68.3158ZM20.3422 65.6806C20.6425 65.6806 20.9038 65.5694 21.1261 65.347C21.3485 65.1135 21.4597 64.8411 21.4597 64.5298C21.4597 64.2185 21.3485 63.946 21.1261 63.7125C20.9038 63.479 20.6425 63.3623 20.3422 63.3623C20.042 63.3623 19.7752 63.479 19.5417 63.7125C19.3193 63.946 19.2081 64.2185 19.2081 64.5298C19.2081 64.8411 19.3193 65.1135 19.5417 65.347C19.7752 65.5694 20.042 65.6806 20.3422 65.6806Z"/>
<path d="M29.3541 68.3158C28.3756 68.3158 27.5973 68.1546 27.0191 67.8321C26.4409 67.5097 26.1518 67.0927 26.1518 66.5812C26.1518 66.2254 26.2686 65.9641 26.5021 65.7973C26.7467 65.6194 27.0358 65.5305 27.3694 65.5305C27.6362 65.5305 27.8308 65.575 27.9531 65.6639C28.0865 65.7529 28.2033 65.8418 28.3033 65.9308C28.4034 66.0197 28.5257 66.0642 28.6703 66.0642C28.9038 66.0642 29.0205 65.9808 29.0205 65.814C29.0205 65.5916 28.8871 65.4304 28.6202 65.3303C28.3645 65.2303 28.0421 65.0913 27.6529 64.9134C27.1192 64.6577 26.7356 64.363 26.5021 64.0294C26.2686 63.6847 26.1518 63.3345 26.1518 62.9787C26.1518 62.5562 26.3019 62.1559 26.6022 61.7778C26.9024 61.3998 27.3249 61.0885 27.8697 60.8439C28.4257 60.5992 29.0872 60.4769 29.8544 60.4769C30.4993 60.4769 31.0775 60.5659 31.589 60.7438C32.1005 60.9217 32.5063 61.1663 32.8065 61.4776C33.1067 61.7778 33.2568 62.1114 33.2568 62.4783C33.2568 62.823 33.1456 63.0843 32.9233 63.2622C32.7009 63.4401 32.4118 63.5291 32.056 63.5291C31.8558 63.5291 31.6946 63.5013 31.5723 63.4457C31.4611 63.379 31.3555 63.3178 31.2554 63.2622C31.1665 63.2066 31.0386 63.1788 30.8718 63.1788C30.7829 63.1788 30.705 63.2122 30.6383 63.2789C30.5716 63.3345 30.5383 63.4068 30.5383 63.4957C30.5383 63.5624 30.566 63.6292 30.6216 63.6959C30.6772 63.7626 30.7718 63.8182 30.9052 63.8626C31.2499 63.9738 31.5834 64.1184 31.9059 64.2963C32.2395 64.4631 32.5119 64.6854 32.7231 64.9634C32.9455 65.2303 33.0567 65.575 33.0567 65.9975C33.0567 66.7202 32.7176 67.2873 32.0393 67.6987C31.3611 68.1101 30.466 68.3158 29.3541 68.3158Z"/>
<path d="M15.4275 58.3087C15.4275 59.5369 14.4319 60.5325 13.2037 60.5325C11.9756 60.5325 10.9799 59.5369 10.9799 58.3087C10.9799 57.0806 11.9756 56.085 13.2037 56.085C14.4319 56.085 15.4275 57.0806 15.4275 58.3087Z"/>
<path d="M11.3759 62.2034C11.4774 61.3757 12.225 60.8105 13.0589 60.8105C13.9511 60.8105 14.7199 61.4635 14.8518 62.346C14.8649 62.4341 14.8716 62.5231 14.8716 62.6122V64.7021C14.8716 64.7021 14.8716 65.536 14.8716 66.6479C14.8716 66.8481 14.8635 67.0393 14.8502 67.2182C14.789 68.0447 14.0545 68.5937 13.2258 68.5937C12.3067 68.5937 11.5161 67.9279 11.4156 67.0143C11.2195 65.2318 11.2063 63.587 11.3759 62.2034Z"/>
</mask>
<path d="M1.86798 68.3158C1.40099 68.3158 1.03962 68.1823 0.783884 67.9155C0.528149 67.6375 0.344687 67.2762 0.233498 66.8314C0.122308 66.3755 0.0555945 65.8752 0.0333567 65.3303C0.0111188 64.7855 0 64.2407 0 63.6959C0 63.429 0 63.0843 0 62.6618C0.0111189 62.2282 0.0166788 61.789 0.0166788 61.3442C0.0277977 60.8883 0.0389166 60.4881 0.0500355 60.1434C0.0611544 59.7876 0.0722732 59.5429 0.0833921 59.4095C0.10563 58.609 0.272413 57.9474 0.583743 57.4248C0.895073 56.9022 1.35651 56.6409 1.96805 56.6409C2.66854 56.6409 3.14665 56.9467 3.40239 57.5582C3.66924 58.1586 3.80267 59.0259 3.80267 60.16C3.80267 60.2824 3.80267 60.4491 3.80267 60.6604C4.01393 60.2712 4.26967 59.8487 4.56988 59.3928C4.88121 58.937 5.22033 58.5033 5.58726 58.0919C5.95418 57.6805 6.34335 57.347 6.75475 57.0912C7.16615 56.8244 7.58311 56.6909 8.00563 56.6909C8.52822 56.6909 8.95629 56.8911 9.28986 57.2914C9.63455 57.6805 9.80689 58.1642 9.80689 58.7424C9.80689 59.265 9.65123 59.7764 9.3399 60.2768C9.03969 60.766 8.62273 61.2108 8.08902 61.6111C7.55531 62.0113 6.93265 62.3394 6.22104 62.5951C6.63244 62.7841 7.0494 63.012 7.47192 63.2789C7.89444 63.5346 8.27804 63.8237 8.62273 64.1462C8.97853 64.4575 9.26206 64.7966 9.47332 65.1636C9.68458 65.5305 9.79021 65.9252 9.79021 66.3477C9.79021 66.8147 9.6957 67.1928 9.50668 67.4819C9.32878 67.7709 9.09528 67.9822 8.80619 68.1156C8.51709 68.2491 8.21133 68.3158 7.88888 68.3158C7.32181 68.3158 6.79366 68.1323 6.30443 67.7654C5.8152 67.3985 5.35932 66.9204 4.9368 66.3311C4.5254 65.7417 4.1418 65.1246 3.786 64.4797C3.786 64.969 3.76376 65.4415 3.71928 65.8974C3.68592 66.3533 3.60809 66.7647 3.48578 67.1316C3.36347 67.4985 3.17445 67.7876 2.91872 67.9989C2.66298 68.2101 2.31274 68.3158 1.86798 68.3158Z" fill="#1877F2"/>
<path d="M13.1986 60.2268C12.6538 60.2268 12.1924 60.0322 11.8143 59.643C11.4363 59.2427 11.2473 58.7591 11.2473 58.192C11.2473 57.814 11.3307 57.4748 11.4974 57.1746C11.6753 56.8744 11.9088 56.6353 12.1979 56.4574C12.4981 56.2684 12.8317 56.1739 13.1986 56.1739C13.5544 56.1739 13.8769 56.2684 14.166 56.4574C14.4662 56.6353 14.7053 56.8744 14.8832 57.1746C15.0611 57.4748 15.15 57.814 15.15 58.192C15.15 58.57 15.0611 58.9147 14.8832 59.2261C14.7053 59.5263 14.4662 59.7709 14.166 59.9599C13.8769 60.1378 13.5544 60.2268 13.1986 60.2268ZM13.1986 68.3158C12.7539 68.3158 12.4203 68.1879 12.1979 67.9322C11.9867 67.6764 11.8421 67.2873 11.7643 66.7647C11.6976 66.231 11.6587 65.5472 11.6475 64.7132C11.6475 63.8793 11.6809 63.1955 11.7476 62.6618C11.8255 62.1281 11.9756 61.7389 12.1979 61.4943C12.4203 61.2386 12.7539 61.1107 13.1986 61.1107C13.6434 61.1107 13.9714 61.2386 14.1827 61.4943C14.405 61.7389 14.5552 62.1281 14.633 62.6618C14.7108 63.1955 14.7497 63.8793 14.7497 64.7132C14.7608 65.5472 14.7275 66.231 14.6497 66.7647C14.5718 67.2873 14.4217 67.6764 14.1993 67.9322C13.977 68.1879 13.6434 68.3158 13.1986 68.3158Z" fill="#1877F2"/>
<path d="M20.2422 68.3158C19.4194 68.3158 18.7078 68.1212 18.1073 67.732C17.518 67.3429 17.0622 66.837 16.7397 66.2143C16.4284 65.5916 16.2727 64.9412 16.2727 64.2629C16.2727 63.3957 16.4451 62.684 16.7897 62.1281C17.1456 61.5721 17.5959 61.1607 18.1407 60.8939C18.6855 60.6159 19.2526 60.4769 19.8419 60.4769C20.1199 60.4769 20.4034 60.5103 20.6925 60.577C20.9816 60.6326 21.254 60.7327 21.5097 60.8772C21.4653 60.3991 21.3652 59.9321 21.2095 59.4762C21.065 59.0092 20.9927 58.5367 20.9927 58.0586C20.9927 57.5693 21.1428 57.208 21.443 56.9745C21.7432 56.741 22.0657 56.6242 22.4104 56.6242C22.8106 56.6242 23.1553 56.7521 23.4444 57.0078C23.7335 57.2636 23.9781 57.6027 24.1783 58.0252C24.3895 58.4477 24.5563 58.9258 24.6786 59.4596C24.8009 59.9821 24.8899 60.5214 24.9455 61.0774C25.0011 61.6333 25.0289 62.167 25.0289 62.6785C25.0289 62.8453 25.0178 63.101 24.9955 63.4457C24.9844 63.7904 24.9344 64.174 24.8454 64.5965C24.7565 65.019 24.6119 65.4471 24.4118 65.8807C24.2228 66.3144 23.9503 66.7147 23.5945 67.0816C23.2498 67.4485 22.8051 67.7487 22.2603 67.9822C21.7154 68.2046 21.0427 68.3158 20.2422 68.3158ZM20.3422 65.6806C20.6425 65.6806 20.9038 65.5694 21.1261 65.347C21.3485 65.1135 21.4597 64.8411 21.4597 64.5298C21.4597 64.2185 21.3485 63.946 21.1261 63.7125C20.9038 63.479 20.6425 63.3623 20.3422 63.3623C20.042 63.3623 19.7752 63.479 19.5417 63.7125C19.3193 63.946 19.2081 64.2185 19.2081 64.5298C19.2081 64.8411 19.3193 65.1135 19.5417 65.347C19.7752 65.5694 20.042 65.6806 20.3422 65.6806Z" fill="#1877F2"/>
<path d="M29.3541 68.3158C28.3756 68.3158 27.5973 68.1546 27.0191 67.8321C26.4409 67.5097 26.1518 67.0927 26.1518 66.5812C26.1518 66.2254 26.2686 65.9641 26.5021 65.7973C26.7467 65.6194 27.0358 65.5305 27.3694 65.5305C27.6362 65.5305 27.8308 65.575 27.9531 65.6639C28.0865 65.7529 28.2033 65.8418 28.3033 65.9308C28.4034 66.0197 28.5257 66.0642 28.6703 66.0642C28.9038 66.0642 29.0205 65.9808 29.0205 65.814C29.0205 65.5916 28.8871 65.4304 28.6202 65.3303C28.3645 65.2303 28.0421 65.0913 27.6529 64.9134C27.1192 64.6577 26.7356 64.363 26.5021 64.0294C26.2686 63.6847 26.1518 63.3345 26.1518 62.9787C26.1518 62.5562 26.3019 62.1559 26.6022 61.7778C26.9024 61.3998 27.3249 61.0885 27.8697 60.8439C28.4257 60.5992 29.0872 60.4769 29.8544 60.4769C30.4993 60.4769 31.0775 60.5659 31.589 60.7438C32.1005 60.9217 32.5063 61.1663 32.8065 61.4776C33.1067 61.7778 33.2568 62.1114 33.2568 62.4783C33.2568 62.823 33.1456 63.0843 32.9233 63.2622C32.7009 63.4401 32.4118 63.5291 32.056 63.5291C31.8558 63.5291 31.6946 63.5013 31.5723 63.4457C31.4611 63.379 31.3555 63.3178 31.2554 63.2622C31.1665 63.2066 31.0386 63.1788 30.8718 63.1788C30.7829 63.1788 30.705 63.2122 30.6383 63.2789C30.5716 63.3345 30.5383 63.4068 30.5383 63.4957C30.5383 63.5624 30.566 63.6292 30.6216 63.6959C30.6772 63.7626 30.7718 63.8182 30.9052 63.8626C31.2499 63.9738 31.5834 64.1184 31.9059 64.2963C32.2395 64.4631 32.5119 64.6854 32.7231 64.9634C32.9455 65.2303 33.0567 65.575 33.0567 65.9975C33.0567 66.7202 32.7176 67.2873 32.0393 67.6987C31.3611 68.1101 30.466 68.3158 29.3541 68.3158Z" fill="#1877F2"/>
<path d="M15.4275 58.3087C15.4275 59.5369 14.4319 60.5325 13.2037 60.5325C11.9756 60.5325 10.9799 59.5369 10.9799 58.3087C10.9799 57.0806 11.9756 56.085 13.2037 56.085C14.4319 56.085 15.4275 57.0806 15.4275 58.3087Z" fill="#1877F2"/>
<path d="M11.3759 62.2034C11.4774 61.3757 12.225 60.8105 13.0589 60.8105C13.9511 60.8105 14.7199 61.4635 14.8518 62.346C14.8649 62.4341 14.8716 62.5231 14.8716 62.6122V64.7021C14.8716 64.7021 14.8716 65.536 14.8716 66.6479C14.8716 66.8481 14.8635 67.0393 14.8502 67.2182C14.789 68.0447 14.0545 68.5937 13.2258 68.5937C12.3067 68.5937 11.5161 67.9279 11.4156 67.0143C11.2195 65.2318 11.2063 63.587 11.3759 62.2034Z" fill="#1877F2"/>
<path d="M1.86798 68.3158C1.40099 68.3158 1.03962 68.1823 0.783884 67.9155C0.528149 67.6375 0.344687 67.2762 0.233498 66.8314C0.122308 66.3755 0.0555945 65.8752 0.0333567 65.3303C0.0111188 64.7855 0 64.2407 0 63.6959C0 63.429 0 63.0843 0 62.6618C0.0111189 62.2282 0.0166788 61.789 0.0166788 61.3442C0.0277977 60.8883 0.0389166 60.4881 0.0500355 60.1434C0.0611544 59.7876 0.0722732 59.5429 0.0833921 59.4095C0.10563 58.609 0.272413 57.9474 0.583743 57.4248C0.895073 56.9022 1.35651 56.6409 1.96805 56.6409C2.66854 56.6409 3.14665 56.9467 3.40239 57.5582C3.66924 58.1586 3.80267 59.0259 3.80267 60.16C3.80267 60.2824 3.80267 60.4491 3.80267 60.6604C4.01393 60.2712 4.26967 59.8487 4.56988 59.3928C4.88121 58.937 5.22033 58.5033 5.58726 58.0919C5.95418 57.6805 6.34335 57.347 6.75475 57.0912C7.16615 56.8244 7.58311 56.6909 8.00563 56.6909C8.52822 56.6909 8.95629 56.8911 9.28986 57.2914C9.63455 57.6805 9.80689 58.1642 9.80689 58.7424C9.80689 59.265 9.65123 59.7764 9.3399 60.2768C9.03969 60.766 8.62273 61.2108 8.08902 61.6111C7.55531 62.0113 6.93265 62.3394 6.22104 62.5951C6.63244 62.7841 7.0494 63.012 7.47192 63.2789C7.89444 63.5346 8.27804 63.8237 8.62273 64.1462C8.97853 64.4575 9.26206 64.7966 9.47332 65.1636C9.68458 65.5305 9.79021 65.9252 9.79021 66.3477C9.79021 66.8147 9.6957 67.1928 9.50668 67.4819C9.32878 67.7709 9.09528 67.9822 8.80619 68.1156C8.51709 68.2491 8.21133 68.3158 7.88888 68.3158C7.32181 68.3158 6.79366 68.1323 6.30443 67.7654C5.8152 67.3985 5.35932 66.9204 4.9368 66.3311C4.5254 65.7417 4.1418 65.1246 3.786 64.4797C3.786 64.969 3.76376 65.4415 3.71928 65.8974C3.68592 66.3533 3.60809 66.7647 3.48578 67.1316C3.36347 67.4985 3.17445 67.7876 2.91872 67.9989C2.66298 68.2101 2.31274 68.3158 1.86798 68.3158Z" stroke="#1877F2" mask="url(#path-2-inside-1_515_824)"/>
<path d="M13.1986 60.2268C12.6538 60.2268 12.1924 60.0322 11.8143 59.643C11.4363 59.2427 11.2473 58.7591 11.2473 58.192C11.2473 57.814 11.3307 57.4748 11.4974 57.1746C11.6753 56.8744 11.9088 56.6353 12.1979 56.4574C12.4981 56.2684 12.8317 56.1739 13.1986 56.1739C13.5544 56.1739 13.8769 56.2684 14.166 56.4574C14.4662 56.6353 14.7053 56.8744 14.8832 57.1746C15.0611 57.4748 15.15 57.814 15.15 58.192C15.15 58.57 15.0611 58.9147 14.8832 59.2261C14.7053 59.5263 14.4662 59.7709 14.166 59.9599C13.8769 60.1378 13.5544 60.2268 13.1986 60.2268ZM13.1986 68.3158C12.7539 68.3158 12.4203 68.1879 12.1979 67.9322C11.9867 67.6764 11.8421 67.2873 11.7643 66.7647C11.6976 66.231 11.6587 65.5472 11.6475 64.7132C11.6475 63.8793 11.6809 63.1955 11.7476 62.6618C11.8255 62.1281 11.9756 61.7389 12.1979 61.4943C12.4203 61.2386 12.7539 61.1107 13.1986 61.1107C13.6434 61.1107 13.9714 61.2386 14.1827 61.4943C14.405 61.7389 14.5552 62.1281 14.633 62.6618C14.7108 63.1955 14.7497 63.8793 14.7497 64.7132C14.7608 65.5472 14.7275 66.231 14.6497 66.7647C14.5718 67.2873 14.4217 67.6764 14.1993 67.9322C13.977 68.1879 13.6434 68.3158 13.1986 68.3158Z" stroke="#1877F2" mask="url(#path-2-inside-1_515_824)"/>
<path d="M20.2422 68.3158C19.4194 68.3158 18.7078 68.1212 18.1073 67.732C17.518 67.3429 17.0622 66.837 16.7397 66.2143C16.4284 65.5916 16.2727 64.9412 16.2727 64.2629C16.2727 63.3957 16.4451 62.684 16.7897 62.1281C17.1456 61.5721 17.5959 61.1607 18.1407 60.8939C18.6855 60.6159 19.2526 60.4769 19.8419 60.4769C20.1199 60.4769 20.4034 60.5103 20.6925 60.577C20.9816 60.6326 21.254 60.7327 21.5097 60.8772C21.4653 60.3991 21.3652 59.9321 21.2095 59.4762C21.065 59.0092 20.9927 58.5367 20.9927 58.0586C20.9927 57.5693 21.1428 57.208 21.443 56.9745C21.7432 56.741 22.0657 56.6242 22.4104 56.6242C22.8106 56.6242 23.1553 56.7521 23.4444 57.0078C23.7335 57.2636 23.9781 57.6027 24.1783 58.0252C24.3895 58.4477 24.5563 58.9258 24.6786 59.4596C24.8009 59.9821 24.8899 60.5214 24.9455 61.0774C25.0011 61.6333 25.0289 62.167 25.0289 62.6785C25.0289 62.8453 25.0178 63.101 24.9955 63.4457C24.9844 63.7904 24.9344 64.174 24.8454 64.5965C24.7565 65.019 24.6119 65.4471 24.4118 65.8807C24.2228 66.3144 23.9503 66.7147 23.5945 67.0816C23.2498 67.4485 22.8051 67.7487 22.2603 67.9822C21.7154 68.2046 21.0427 68.3158 20.2422 68.3158ZM20.3422 65.6806C20.6425 65.6806 20.9038 65.5694 21.1261 65.347C21.3485 65.1135 21.4597 64.8411 21.4597 64.5298C21.4597 64.2185 21.3485 63.946 21.1261 63.7125C20.9038 63.479 20.6425 63.3623 20.3422 63.3623C20.042 63.3623 19.7752 63.479 19.5417 63.7125C19.3193 63.946 19.2081 64.2185 19.2081 64.5298C19.2081 64.8411 19.3193 65.1135 19.5417 65.347C19.7752 65.5694 20.042 65.6806 20.3422 65.6806Z" stroke="#1877F2" mask="url(#path-2-inside-1_515_824)"/>
<path d="M29.3541 68.3158C28.3756 68.3158 27.5973 68.1546 27.0191 67.8321C26.4409 67.5097 26.1518 67.0927 26.1518 66.5812C26.1518 66.2254 26.2686 65.9641 26.5021 65.7973C26.7467 65.6194 27.0358 65.5305 27.3694 65.5305C27.6362 65.5305 27.8308 65.575 27.9531 65.6639C28.0865 65.7529 28.2033 65.8418 28.3033 65.9308C28.4034 66.0197 28.5257 66.0642 28.6703 66.0642C28.9038 66.0642 29.0205 65.9808 29.0205 65.814C29.0205 65.5916 28.8871 65.4304 28.6202 65.3303C28.3645 65.2303 28.0421 65.0913 27.6529 64.9134C27.1192 64.6577 26.7356 64.363 26.5021 64.0294C26.2686 63.6847 26.1518 63.3345 26.1518 62.9787C26.1518 62.5562 26.3019 62.1559 26.6022 61.7778C26.9024 61.3998 27.3249 61.0885 27.8697 60.8439C28.4257 60.5992 29.0872 60.4769 29.8544 60.4769C30.4993 60.4769 31.0775 60.5659 31.589 60.7438C32.1005 60.9217 32.5063 61.1663 32.8065 61.4776C33.1067 61.7778 33.2568 62.1114 33.2568 62.4783C33.2568 62.823 33.1456 63.0843 32.9233 63.2622C32.7009 63.4401 32.4118 63.5291 32.056 63.5291C31.8558 63.5291 31.6946 63.5013 31.5723 63.4457C31.4611 63.379 31.3555 63.3178 31.2554 63.2622C31.1665 63.2066 31.0386 63.1788 30.8718 63.1788C30.7829 63.1788 30.705 63.2122 30.6383 63.2789C30.5716 63.3345 30.5383 63.4068 30.5383 63.4957C30.5383 63.5624 30.566 63.6292 30.6216 63.6959C30.6772 63.7626 30.7718 63.8182 30.9052 63.8626C31.2499 63.9738 31.5834 64.1184 31.9059 64.2963C32.2395 64.4631 32.5119 64.6854 32.7231 64.9634C32.9455 65.2303 33.0567 65.575 33.0567 65.9975C33.0567 66.7202 32.7176 67.2873 32.0393 67.6987C31.3611 68.1101 30.466 68.3158 29.3541 68.3158Z" stroke="#1877F2" mask="url(#path-2-inside-1_515_824)"/>
<path d="M15.4275 58.3087C15.4275 59.5369 14.4319 60.5325 13.2037 60.5325C11.9756 60.5325 10.9799 59.5369 10.9799 58.3087C10.9799 57.0806 11.9756 56.085 13.2037 56.085C14.4319 56.085 15.4275 57.0806 15.4275 58.3087Z" stroke="#1877F2" mask="url(#path-2-inside-1_515_824)"/>
<path d="M11.3759 62.2034C11.4774 61.3757 12.225 60.8105 13.0589 60.8105C13.9511 60.8105 14.7199 61.4635 14.8518 62.346C14.8649 62.4341 14.8716 62.5231 14.8716 62.6122V64.7021C14.8716 64.7021 14.8716 65.536 14.8716 66.6479C14.8716 66.8481 14.8635 67.0393 14.8502 67.2182C14.789 68.0447 14.0545 68.5937 13.2258 68.5937C12.3067 68.5937 11.5161 67.9279 11.4156 67.0143C11.2195 65.2318 11.2063 63.587 11.3759 62.2034Z" stroke="#1877F2" mask="url(#path-2-inside-1_515_824)"/>
<path d="M69.0419 65.3417L68.8186 65.4542L68.8186 65.4541L68.8185 65.4539L68.8182 65.4532L68.8172 65.4513L68.8139 65.4447L68.8026 65.4211C68.793 65.4011 68.7797 65.3724 68.7638 65.3366C68.7322 65.2652 68.6901 65.1644 68.648 65.0461C68.5656 64.8149 68.475 64.4951 68.475 64.1909C68.475 63.8165 68.492 63.4631 68.5264 63.1311L68.5272 63.1226L68.5274 63.1227C68.5704 62.811 68.5918 62.5055 68.5918 62.2061C68.5918 61.9885 68.5572 61.79 68.4904 61.6088L68.4878 61.6015L68.4856 61.5942C68.437 61.4322 68.3361 61.2941 68.1669 61.1783L68.1616 61.1747L68.1617 61.1746C68.0223 61.074 67.7888 61.0051 67.4241 61.0051C66.9829 61.0051 66.6379 61.2109 66.3754 61.6765C66.1146 62.1591 65.9729 62.8455 65.9729 63.7572C65.9729 64.6845 66.129 65.4935 66.4345 66.1897C66.7505 66.8735 67.1885 67.4027 67.7467 67.7858C68.3121 68.1552 68.9796 68.344 69.7591 68.344C70.6227 68.344 71.3151 68.1523 71.8531 67.787C72.4102 67.4051 72.8307 66.8782 73.1138 66.1971C73.3993 65.4989 73.5452 64.6873 73.5452 63.7572C73.5452 62.8444 73.4032 62.1574 73.1418 61.6748C73.0129 61.4368 72.8629 61.2718 72.6973 61.1658C72.533 61.0607 72.3404 61.0051 72.1107 61.0051C71.576 61.0051 71.3087 61.1471 71.1881 61.3386L71.1859 61.3423L71.1858 61.3423C71.0267 61.5857 70.9431 61.8759 70.9431 62.2228C70.9431 62.5825 70.9594 62.9007 70.9914 63.1782C71.0261 63.4789 71.0431 63.8167 71.0431 64.1909C71.0431 64.7385 70.9339 65.194 70.6658 65.5047C70.4238 65.7868 70.1182 65.9419 69.7591 65.9419C69.6459 65.9419 69.5328 65.9052 69.4434 65.8682C69.3492 65.8291 69.2563 65.7789 69.1769 65.7317C69.0967 65.6841 69.0259 65.6369 68.9753 65.6017C68.9499 65.5841 68.9293 65.5692 68.9148 65.5586L68.8978 65.5461L68.8929 65.5425L68.8915 65.5414L68.891 65.541L68.8909 65.5409L68.8908 65.5409L69.0419 65.3417ZM69.0419 65.3417L68.8187 65.4543L68.8447 65.5059L68.8908 65.5408L69.0419 65.3417Z" fill="#1877F2" stroke="#1877F2" stroke-width="0.5"/>
<path d="M63.6243 64.2741C63.6243 64.6494 63.5222 64.8879 63.3588 65.0372C63.1682 65.1995 62.9033 65.3177 62.5478 65.3787C62.176 65.4424 61.7577 65.475 61.2921 65.4751C60.824 65.464 60.3449 65.4585 59.8548 65.4585C59.6743 65.4585 59.4938 65.464 59.3134 65.4751H59.3133H59.3123H59.3113H59.3104H59.3094H59.3084H59.3074H59.3064H59.3055H59.3045H59.3035H59.3025H59.3015H59.3006H59.2996H59.2986H59.2976H59.2966H59.2957H59.2947H59.2937H59.2927H59.2917H59.2908H59.2898H59.2888H59.2878H59.2868H59.2858H59.2849H59.2839H59.2829H59.2819H59.2809H59.28H59.279H59.278H59.277H59.276H59.275H59.2741H59.2731H59.2721H59.2711H59.2701H59.2691H59.2682H59.2672H59.2662H59.2652H59.2642H59.2632H59.2622H59.2613H59.2603H59.2593H59.2583H59.2573H59.2563H59.2553H59.2544H59.2534H59.2524H59.2514H59.2504H59.2494H59.2484H59.2475H59.2465H59.2455H59.2445H59.2435H59.2425H59.2415H59.2405H59.2396H59.2386H59.2376H59.2366H59.2356H59.2346H59.2336H59.2326H59.2317H59.2307H59.2297H59.2287H59.2277H59.2267H59.2257H59.2247H59.2237H59.2227H59.2218H59.2208H59.2198H59.2188H59.2178H59.2168H59.2158H59.2148H59.2138H59.2128H59.2119H59.2109H59.2099H59.2089H59.2079H59.2069H59.2059H59.2049H59.2039H59.2029H59.2019H59.2009H59.1999H59.199H59.198H59.197H59.196H59.195H59.194H59.193H59.192H59.191H59.19H59.189H59.188H59.187H59.186H59.185H59.184H59.183H59.1821H59.1811H59.1801H59.1791H59.1781H59.1771H59.1761H59.1751H59.1741H59.1731H59.1721H59.1711H59.1701H59.1691H59.1681H59.1671H59.1661H59.1651H59.1641H59.1631H59.1621H59.1611H59.1601H59.1591H59.1581H59.1571H59.1561H59.1551H59.1541H59.1531H59.1521H59.1511H59.1501H59.1491H59.1481H59.1471H59.1461H59.1451H59.1441H59.1431H59.1421H59.1411H59.1401H59.1391H59.1381H59.1371H59.1361H59.1351H59.1341H59.1331H59.1321H59.1311H59.1301H59.1291H59.1281H59.1271H59.1261H59.1251H59.1241H59.1231H59.1221H59.1211H59.1201H59.1191H59.1181H59.1171H59.1161H59.1151H59.1141H59.1131H59.1121H59.1111H59.1101H59.1091H59.1081H59.1071H59.1061H59.105H59.104H59.103H59.102H59.101H59.1H59.099H59.098H59.097H59.096H59.095H59.094H59.093H59.092H59.091H59.09H59.0889H59.0879H59.0869H59.0859H59.0849H59.0839H59.0829H59.0819H59.0809H59.0799H59.0789H59.0779H59.0769H59.0758H59.0748H59.0738H59.0728H59.0718H59.0708H59.0698H59.0688H59.0678H59.0668H59.0658H59.0647H59.0637H59.0627H59.0617H59.0607H59.0597H59.0587H59.0577H59.0567H59.0556H59.0546H59.0536H59.0526H59.0516H59.0506H59.0496H59.0486H59.0476H59.0465H59.0455H59.0445H59.0435H59.0425H59.0415H59.0405H59.0395H59.0384H59.0374H59.0364H59.0354H59.0344H59.0334H59.0324H59.0313H59.0303H59.0293H59.0283H59.0273H59.0263H59.0253H59.0242H59.0232H59.0222H59.0212H59.0202H59.0192H59.0181H59.0171H59.0161H59.0151H59.0141H59.0131H59.012H59.011H59.01H59.009H59.008H59.007H59.0059H59.0049H59.0039H59.0029H59.0019H59.0009H58.9998H58.9988H58.9978H58.9968H58.9958H58.9947H58.9937H58.9927H58.9917H58.9907H58.9896H58.9886H58.9876H58.9866H58.9856H58.9845H58.9835H58.9825H58.9815H58.9805H58.9794H58.9784H58.9774H58.9764H58.9754H58.9743H58.9733H58.9723H58.9713H58.9703H58.9692H58.9682H58.9672H58.9662H58.9651H58.9641H58.9631H58.9621H58.9611H58.96H58.959H58.958H58.957H58.9559H58.9549H58.9539H58.9529H58.9518H58.9508H58.9498H58.9488H58.9477H58.9467H58.9457H58.9447H58.9436H58.9426H58.9416H58.9406H58.9395H58.9385H58.9375H58.9365H58.9354H58.9344H58.9334H58.9324H58.9313H58.9303H58.9293H58.9282H58.9272H58.9262H58.9252H58.9241H58.9231H58.9221H58.9211H58.92H58.919H58.918H58.9169H58.9159H58.9149H58.9139H58.9128H58.9118H58.9108H58.9097H58.9087H58.9077H58.9067H58.9056H58.9046H58.9036H58.9025H58.9015H58.9005H58.8994H58.8984H58.8974H58.8963H58.8953H58.8943H58.8933H58.8922H58.8912H58.8902H58.8891H58.8881H58.8871H58.886H58.885H58.884H58.8829H58.8819H58.8809H58.8798H58.8788H58.8778H58.8767H58.8757H58.8747H58.8736H58.8726H58.8716H58.8705H58.8695H58.8685H58.8674H58.8664H58.8654H58.8643H58.8633H58.8623H58.8612H58.8602H58.8591H58.8581H58.8571H58.856H58.855H58.854H58.8529H58.8519H58.8509H58.8498H58.8488H58.8477H58.8467H58.8457H58.8446H58.8436H58.8426H58.8415H58.8405H58.8394H58.8384H58.8374H58.8363H58.8353H58.8343H58.8332H58.8322H58.8311H58.8301H58.8291H58.828H58.827H58.8259H58.8249H58.8239H58.8228H58.8218H58.8207H58.8197H58.8187H58.8176H58.8166H58.8155H58.8145H58.8135H58.8124H58.8114H58.8103H58.8093H58.8082H58.8072H58.8062H58.8051H58.8041H58.5158L58.5566 65.7605C58.5779 65.9096 58.5939 66.0645 58.6047 66.2254C58.6154 66.3863 58.6208 66.5531 58.6208 66.7258C58.6208 67.013 58.5798 67.2884 58.4984 67.5529L58.4983 67.5529L58.4966 67.5591C58.4317 67.791 58.3138 67.975 58.1427 68.1191C57.9919 68.2461 57.7571 68.3271 57.4031 68.3271C56.9594 68.3271 56.5637 68.1708 56.2071 67.8449C55.8649 67.5112 55.5761 66.9609 55.3599 66.1618C55.1562 65.3675 55.0513 64.3181 55.0513 63.0065C55.0513 62.1329 55.1914 61.3413 55.468 60.6286C55.7461 59.9118 56.1294 59.3012 56.6163 58.7931L56.6163 58.7931L56.618 58.7912C57.1061 58.2713 57.6724 57.8746 58.3184 57.5992L58.3184 57.5993L58.3215 57.5979C58.9668 57.3122 59.6549 57.1689 60.3885 57.1689C61.6573 57.1689 62.5646 57.3891 63.1486 57.7919L63.1486 57.7919L63.1527 57.7946C63.7408 58.1834 64.0246 58.7066 64.0246 59.3873C64.0246 59.9303 63.8938 60.2819 63.6809 60.4948C63.4608 60.7148 63.1302 60.8761 62.6631 60.9591L62.6621 60.9593C62.1916 61.0449 61.6291 61.0887 60.9723 61.0887C60.5706 61.0887 60.1844 61.1477 59.8149 61.2664C59.4399 61.3758 59.1205 61.5489 58.8654 61.7912C58.6097 62.0336 58.4618 62.339 58.4222 62.6954L58.4207 62.7092V62.723C58.4207 62.7623 58.4167 62.7915 58.4114 62.8125L58.3292 63.1416L58.6678 63.1227C58.8634 63.1119 59.0589 63.1064 59.2544 63.1064H59.2556H59.2567H59.2579H59.2591H59.2603H59.2614H59.2626H59.2638H59.265H59.2661H59.2673H59.2685H59.2696H59.2708H59.272H59.2732H59.2743H59.2755H59.2767H59.2779H59.279H59.2802H59.2814H59.2825H59.2837H59.2849H59.2861H59.2872H59.2884H59.2896H59.2908H59.2919H59.2931H59.2943H59.2954H59.2966H59.2978H59.299H59.3001H59.3013H59.3025H59.3037H59.3048H59.306H59.3072H59.3083H59.3095H59.3107H59.3119H59.313H59.3142H59.3154H59.3166H59.3177H59.3189H59.3201H59.3212H59.3224H59.3236H59.3248H59.3259H59.3271H59.3283H59.3295H59.3306H59.3318H59.333H59.3341H59.3353H59.3365H59.3377H59.3388H59.34H59.3412H59.3424H59.3435H59.3447H59.3459H59.347H59.3482H59.3494H59.3506H59.3517H59.3529H59.3541H59.3553H59.3564H59.3576H59.3588H59.3599H59.3611H59.3623H59.3635H59.3646H59.3658H59.367H59.3682H59.3693H59.3705H59.3717H59.3728H59.374H59.3752H59.3764H59.3775H59.3787H59.3799H59.381H59.3822H59.3834H59.3846H59.3857H59.3869H59.3881H59.3893H59.3904H59.3916H59.3928H59.3939H59.3951H59.3963H59.3975H59.3986H59.3998H59.401H59.4022H59.4033H59.4045H59.4057H59.4068H59.408H59.4092H59.4104H59.4115H59.4127H59.4139H59.4151H59.4162H59.4174H59.4186H59.4197H59.4209H59.4221H59.4233H59.4244H59.4256H59.4268H59.428H59.4291H59.4303H59.4315H59.4326H59.4338H59.435H59.4362H59.4373H59.4385H59.4397H59.4409H59.442H59.4432H59.4444H59.4455H59.4467H59.4479H59.4491H59.4502H59.4514H59.4526H59.4538H59.4549H59.4561H59.4573H59.4584H59.4596H59.4608H59.462H59.4631H59.4643H59.4655H59.4667H59.4678H59.469H59.4702H59.4713H59.4725H59.4737H59.4749H59.476H59.4772H59.4784H59.4796H59.4807H59.4819H59.4831H59.4842H59.4854H59.4866H59.4878H59.4889H59.4901H59.4913H59.4925H59.4936H59.4948H59.496H59.4971H59.4983H59.4995H59.5007H59.5018H59.503H59.5042H59.5054H59.5065H59.5077H59.5089H59.51H59.5112H59.5124H59.5136H59.5147H59.5159H59.5171H59.5183H59.5194H59.5206H59.5218H59.5229H59.5241H59.5253H59.5265H59.5276H59.5288H59.53H59.5312H59.5323H59.5335H59.5347H59.5358H59.537H59.5382H59.5394H59.5405H59.5417H59.5429H59.5441H59.5452H59.5464H59.5476H59.5487H59.5499H59.5511H59.5523H59.5534H59.5546H59.5558H59.557H59.5581H59.5593H59.5605H59.5616H59.5628H59.564H59.5652H59.5663H59.5675H59.5687H59.5699H59.571H59.5722H59.5734H59.5745H59.5757H59.5769H59.5781H59.5792H59.5804H59.5816H59.5828H59.5839H59.5851H59.5863H59.5874H59.5886H59.5898H59.591H59.5921H59.5933H59.5945H59.5957H59.5968H59.598H59.5992H59.6003H59.6015H59.6027H59.6039H59.605H59.6062H59.6074H59.6086H59.6097H59.6109H59.6121H59.6132H59.6144H59.6156H59.6168H59.6179H59.6191H59.6203H59.6215H59.6226H59.6238H59.625H59.6261H59.6273H59.6285H59.6297H59.6308H59.632H59.6332H59.6344H59.6355H59.6367H59.6379H59.639H59.6402H59.6414H59.6426H59.6437H59.6449H59.6461H59.6473H59.6484H59.6496H59.6508H59.6519H59.6531H59.6543H59.6555H59.6566H59.6578H59.659H59.6602H59.6613H59.6625H59.6637H59.6648H59.666H59.6672H59.6684H59.6695H59.6707H59.6719H59.6731H59.6742H59.6754H59.6766H59.6777H59.6789H59.6801H59.6813H59.6824H59.6836H59.6848H59.686H59.6871H59.6883H59.6895H59.6906H59.6918H59.693H59.6942H59.6953H59.6965H59.6977H59.6989H59.7H59.7012H59.7024H59.7035H59.7047H59.7059H59.7071H59.7082H59.7094H59.7106H59.7118H59.7129H59.7141H59.7153H59.7164H59.7176H59.7188H59.72H59.7211H59.7223H59.7235H59.7247H59.7258H59.727H59.7282H59.7293H59.7305H59.7317H59.7329H59.734H59.7352H59.7364H59.7376H59.7387H59.7399H59.7411H59.7422H59.7434H59.7446H59.7458H59.7469H59.7481H59.7493H59.7505H59.7516H59.7528H59.754H59.7551H59.7563H59.7575H59.7587H59.7598H59.761H59.7622H59.7633H59.7645H59.7657H59.7669H59.768H59.7692H59.7704H59.7716H59.7727H59.7739H59.7751H59.7762H59.7774H59.7786H59.7798H59.7809H59.7821H59.7833H59.7845H59.7856H59.7868H59.788H59.7891H59.7903H59.7915H59.7927H59.7938H59.795H59.7962H59.7974H59.7985H59.7997H59.8009H59.802H59.8032H59.8044H59.8056H59.8067H59.8079H59.8091H59.8103H59.8114H59.8126H59.8138H59.8149H59.8161H59.8173H59.8185H59.8196H59.8208H59.822H59.8232H59.8243H59.8255H59.8267H59.8278H59.829H59.8302H59.8314H59.8325H59.8337H59.8349H59.8361H59.8372H59.8384H59.8396H59.8407H59.8419H59.8431H59.8443H59.8454H59.8466H59.8478H59.849H59.8501H59.8513H59.8525H59.8536H59.8548C60.3422 63.1064 60.8183 63.112 61.2832 63.1231L61.2832 63.1231H61.2892C61.754 63.1231 62.1709 63.161 62.541 63.235L62.541 63.2351L62.5478 63.2363C62.9049 63.2975 63.1706 63.4165 63.3614 63.58C63.5253 63.7205 63.6243 63.937 63.6243 64.2741ZM80.699 67.2542C80.6663 66.8724 80.6499 66.4905 80.6499 66.1087C80.6499 65.5001 80.5645 64.9875 80.3767 64.5863C80.2763 64.366 80.131 64.1876 79.9358 64.0661C79.741 63.9448 79.5136 63.8907 79.2658 63.8907C79.0346 63.8907 78.8213 63.9474 78.6361 64.0696C78.4524 64.1908 78.3117 64.3664 78.2076 64.5806C78.0065 64.9836 77.915 65.4985 77.915 66.1087C77.915 66.4907 77.8987 66.867 77.866 67.2376L77.8659 67.2376L77.8654 67.2449C77.8454 67.5856 77.7567 67.855 77.6112 68.0651C77.5011 68.2148 77.2774 68.3271 76.8474 68.3271C76.5744 68.3271 76.3528 68.2298 76.1668 68.0272C75.9741 67.8048 75.8171 67.5062 75.7028 67.1216C75.5853 66.7264 75.4991 66.2969 75.4449 65.8326C75.4013 65.3626 75.3796 64.9098 75.3796 64.4743C75.3796 64.0378 75.4014 63.5899 75.4452 63.1303C75.4883 62.6773 75.5635 62.2594 75.6698 61.8757C75.784 61.5031 75.9405 61.217 76.1318 61.0065C76.3029 60.8183 76.5227 60.7214 76.8141 60.7214C77.0936 60.7214 77.2944 60.7849 77.4377 60.8899C77.5797 60.9939 77.6904 61.1568 77.7568 61.4037L77.8746 61.8412L78.1819 61.5083C78.2811 61.4008 78.4558 61.2845 78.7294 61.1687L78.7295 61.1687L78.7336 61.1669C78.9973 61.0497 79.3011 60.9883 79.6494 60.9883C80.4624 60.9883 81.104 61.1934 81.5952 61.5844C82.0955 61.9826 82.4649 62.5384 82.6969 63.266L82.6968 63.266L82.6982 63.2701C82.943 63.9937 83.0629 64.843 83.052 65.8224L83.052 65.8224V65.8252C83.052 66.3206 83.0035 66.7679 82.9086 67.1686L82.9086 67.1686L82.9075 67.1734C82.8259 67.5509 82.6815 67.8416 82.4836 68.0583L82.4832 68.0587C82.3194 68.2389 82.077 68.3438 81.7175 68.3438C81.3186 68.3438 81.0926 68.236 80.9684 68.0787C80.8224 67.8666 80.7291 67.5954 80.699 67.2542Z" fill="#50E3C2" stroke="#50E3C2" stroke-width="0.5"/>
<path d="M68.866 58.3087C68.866 59.0918 68.2312 59.7266 67.4481 59.7266C66.6651 59.7266 66.0303 59.0918 66.0303 58.3087C66.0303 57.5257 66.6651 56.8909 67.4481 56.8909C68.2312 56.8909 68.866 57.5257 68.866 58.3087ZM73.5915 57.7528C73.5915 58.5358 72.9567 59.1706 72.1736 59.1706C71.3906 59.1706 70.7558 58.5359 70.7558 57.7528C70.7558 56.9697 71.3906 56.335 72.1736 56.335C72.9567 56.335 73.5915 56.9698 73.5915 57.7528Z" fill="#FF5353" stroke="#F86BC2" stroke-width="0.5"/>
<mask id="path-6-inside-2_515_824" fill="white">
<path d="M109.917 69.1497C109.361 69.1497 108.8 69.133 108.233 69.0997C107.677 69.0552 107.165 68.9551 106.698 68.7995C106.243 68.6327 105.876 68.3769 105.598 68.0322C105.32 67.6876 105.181 67.215 105.181 66.6146C105.181 66.2254 105.32 65.8307 105.598 65.4304C105.876 65.019 106.226 64.6187 106.648 64.2296C107.082 63.8293 107.544 63.4512 108.033 63.0954C108.522 62.7396 108.972 62.4172 109.384 62.1281C108.939 62.1726 108.455 62.1837 107.933 62.1615C107.41 62.1392 106.915 62.0558 106.448 61.9113C105.981 61.7667 105.598 61.5444 105.297 61.2441C104.997 60.9439 104.847 60.5437 104.847 60.0433C104.847 59.4318 105.042 58.9425 105.431 58.5756C105.82 58.2087 106.343 57.9418 106.999 57.775C107.666 57.6083 108.4 57.5249 109.2 57.5249C109.923 57.5249 110.618 57.5638 111.285 57.6416C111.963 57.7083 112.569 57.8473 113.103 58.0586C113.637 58.2587 114.059 58.5645 114.371 58.9759C114.693 59.3762 114.854 59.9099 114.854 60.577C114.854 61.0774 114.737 61.5499 114.504 61.9947C114.282 62.4394 113.981 62.8564 113.603 63.2455C113.225 63.6347 112.803 63.9961 112.336 64.3296C111.88 64.6521 111.418 64.9467 110.951 65.2136C111.452 65.2247 111.935 65.2525 112.402 65.297C112.869 65.3415 113.281 65.4304 113.637 65.5638C114.004 65.6862 114.293 65.8752 114.504 66.1309C114.715 66.3866 114.821 66.7313 114.821 67.165C114.821 67.6653 114.66 68.0545 114.337 68.3325C114.026 68.5993 113.62 68.7939 113.12 68.9162C112.619 69.0274 112.086 69.0941 111.519 69.1163C110.951 69.1386 110.418 69.1497 109.917 69.1497Z"/>
<path d="M138.752 69.1497C137.918 69.1497 137.184 68.9885 136.551 68.666C135.928 68.3325 135.439 67.8821 135.083 67.3151C134.738 66.7369 134.566 66.0753 134.566 65.3303C134.566 64.6076 134.738 63.9405 135.083 63.3289C135.439 62.7174 135.922 62.2282 136.534 61.8612C137.157 61.4943 137.868 61.3109 138.669 61.3109C139.414 61.3109 140.053 61.461 140.587 61.7612C141.121 62.0614 141.526 62.445 141.804 62.912C142.093 63.3679 142.238 63.8515 142.238 64.363C142.238 64.8745 142.121 65.297 141.888 65.6306C141.654 65.953 141.349 66.2032 140.97 66.3811C140.604 66.5479 140.209 66.6591 139.786 66.7146C139.364 66.7702 138.958 66.7814 138.569 66.748C138.18 66.7035 137.852 66.6368 137.585 66.5479C137.785 66.8703 138.035 67.0927 138.335 67.215C138.647 67.3262 138.969 67.3762 139.303 67.3651C139.647 67.3429 139.959 67.304 140.237 67.2484C140.581 67.1705 140.865 67.1872 141.087 67.2984C141.31 67.4096 141.426 67.5875 141.437 67.8321C141.449 68.0322 141.376 68.2324 141.221 68.4325C141.076 68.6327 140.809 68.805 140.42 68.9496C140.031 69.083 139.475 69.1497 138.752 69.1497ZM137.635 64.5131C137.746 64.691 137.907 64.8189 138.118 64.8967C138.33 64.9634 138.541 64.9857 138.752 64.9634C138.975 64.9412 139.158 64.88 139.303 64.78C139.458 64.6799 139.536 64.5409 139.536 64.363C139.536 64.174 139.458 64.0072 139.303 63.8626C139.158 63.707 138.925 63.6292 138.602 63.6292C138.291 63.6292 138.052 63.7292 137.885 63.9294C137.718 64.1184 137.635 64.313 137.635 64.5131Z"/>
<path d="M122.241 58.3087C122.241 59.5369 121.246 60.5325 120.018 60.5325C118.789 60.5325 117.794 59.5369 117.794 58.3087C117.794 57.0806 118.789 56.085 120.018 56.085C121.246 56.085 122.241 57.0806 122.241 58.3087Z"/>
<path d="M119.971 69.1663C119.148 69.1774 118.425 69.0107 117.803 68.666C117.191 68.3102 116.707 67.8321 116.352 67.2316C116.007 66.6201 115.823 65.9474 115.801 65.2135C115.79 64.4575 115.962 63.7903 116.318 63.2121C116.674 62.6228 117.169 62.1558 117.803 61.8112C118.436 61.4665 119.159 61.2941 119.971 61.2941C120.771 61.283 121.477 61.4498 122.089 61.7945C122.712 62.1392 123.206 62.6062 123.573 63.1955C123.94 63.7848 124.135 64.4575 124.157 65.2135C124.168 65.9363 123.996 66.5979 123.64 67.1983C123.284 67.7876 122.789 68.2601 122.156 68.6159C121.522 68.9606 120.794 69.1441 119.971 69.1663ZM120.021 66.7313C120.321 66.7313 120.582 66.6145 120.805 66.381C121.027 66.1475 121.138 65.8751 121.138 65.5638C121.138 65.2525 121.027 64.9856 120.805 64.7632C120.582 64.5297 120.321 64.413 120.021 64.413C119.721 64.413 119.459 64.5297 119.237 64.7632C119.015 64.9856 118.903 65.2525 118.903 65.5638C118.903 65.8751 119.015 66.1475 119.237 66.381C119.459 66.6145 119.721 66.7313 120.021 66.7313Z"/>
<path d="M131.861 69.1497C131.416 69.1497 131.099 69.0273 130.91 68.7827C130.732 68.527 130.627 68.2101 130.594 67.8321C130.56 67.4429 130.543 67.0537 130.543 66.6646C130.543 66.0753 130.46 65.6027 130.293 65.2469C130.127 64.88 129.832 64.6965 129.409 64.6965C129.031 64.6965 128.753 64.88 128.575 65.2469C128.398 65.6027 128.309 66.0753 128.309 66.6646C128.309 67.0537 128.292 67.4373 128.259 67.8154C128.236 68.1934 128.136 68.5103 127.958 68.766C127.78 69.0107 127.458 69.133 126.991 69.133C126.646 69.133 126.357 69.0051 126.124 68.7494C125.901 68.4936 125.729 68.1601 125.607 67.7487C125.484 67.3373 125.395 66.8925 125.34 66.4144C125.295 65.9363 125.273 65.4748 125.273 65.0301C125.273 64.5853 125.295 64.1295 125.34 63.6625C125.384 63.1955 125.462 62.7618 125.573 62.3615C125.696 61.9613 125.868 61.6388 126.09 61.3942C126.313 61.1496 126.602 61.0273 126.958 61.0273C127.591 61.0273 127.986 61.3164 128.142 61.8946C128.275 61.75 128.486 61.6166 128.776 61.4943C129.076 61.3608 129.415 61.2941 129.793 61.2941C130.649 61.2941 131.35 61.5109 131.894 61.9446C132.439 62.3782 132.834 62.9786 133.079 63.7458C133.334 64.5019 133.457 65.3803 133.446 66.381C133.446 66.8925 133.395 67.3595 133.295 67.782C133.206 68.1934 133.045 68.527 132.812 68.7827C132.589 69.0273 132.272 69.1497 131.861 69.1497Z"/>
</mask>
<path d="M109.917 69.1497C109.361 69.1497 108.8 69.133 108.233 69.0997C107.677 69.0552 107.165 68.9551 106.698 68.7995C106.243 68.6327 105.876 68.3769 105.598 68.0322C105.32 67.6876 105.181 67.215 105.181 66.6146C105.181 66.2254 105.32 65.8307 105.598 65.4304C105.876 65.019 106.226 64.6187 106.648 64.2296C107.082 63.8293 107.544 63.4512 108.033 63.0954C108.522 62.7396 108.972 62.4172 109.384 62.1281C108.939 62.1726 108.455 62.1837 107.933 62.1615C107.41 62.1392 106.915 62.0558 106.448 61.9113C105.981 61.7667 105.598 61.5444 105.297 61.2441C104.997 60.9439 104.847 60.5437 104.847 60.0433C104.847 59.4318 105.042 58.9425 105.431 58.5756C105.82 58.2087 106.343 57.9418 106.999 57.775C107.666 57.6083 108.4 57.5249 109.2 57.5249C109.923 57.5249 110.618 57.5638 111.285 57.6416C111.963 57.7083 112.569 57.8473 113.103 58.0586C113.637 58.2587 114.059 58.5645 114.371 58.9759C114.693 59.3762 114.854 59.9099 114.854 60.577C114.854 61.0774 114.737 61.5499 114.504 61.9947C114.282 62.4394 113.981 62.8564 113.603 63.2455C113.225 63.6347 112.803 63.9961 112.336 64.3296C111.88 64.6521 111.418 64.9467 110.951 65.2136C111.452 65.2247 111.935 65.2525 112.402 65.297C112.869 65.3415 113.281 65.4304 113.637 65.5638C114.004 65.6862 114.293 65.8752 114.504 66.1309C114.715 66.3866 114.821 66.7313 114.821 67.165C114.821 67.6653 114.66 68.0545 114.337 68.3325C114.026 68.5993 113.62 68.7939 113.12 68.9162C112.619 69.0274 112.086 69.0941 111.519 69.1163C110.951 69.1386 110.418 69.1497 109.917 69.1497Z" fill="#F86BC2"/>
<path d="M138.752 69.1497C137.918 69.1497 137.184 68.9885 136.551 68.666C135.928 68.3325 135.439 67.8821 135.083 67.3151C134.738 66.7369 134.566 66.0753 134.566 65.3303C134.566 64.6076 134.738 63.9405 135.083 63.3289C135.439 62.7174 135.922 62.2282 136.534 61.8612C137.157 61.4943 137.868 61.3109 138.669 61.3109C139.414 61.3109 140.053 61.461 140.587 61.7612C141.121 62.0614 141.526 62.445 141.804 62.912C142.093 63.3679 142.238 63.8515 142.238 64.363C142.238 64.8745 142.121 65.297 141.888 65.6306C141.654 65.953 141.349 66.2032 140.97 66.3811C140.604 66.5479 140.209 66.6591 139.786 66.7146C139.364 66.7702 138.958 66.7814 138.569 66.748C138.18 66.7035 137.852 66.6368 137.585 66.5479C137.785 66.8703 138.035 67.0927 138.335 67.215C138.647 67.3262 138.969 67.3762 139.303 67.3651C139.647 67.3429 139.959 67.304 140.237 67.2484C140.581 67.1705 140.865 67.1872 141.087 67.2984C141.31 67.4096 141.426 67.5875 141.437 67.8321C141.449 68.0322 141.376 68.2324 141.221 68.4325C141.076 68.6327 140.809 68.805 140.42 68.9496C140.031 69.083 139.475 69.1497 138.752 69.1497ZM137.635 64.5131C137.746 64.691 137.907 64.8189 138.118 64.8967C138.33 64.9634 138.541 64.9857 138.752 64.9634C138.975 64.9412 139.158 64.88 139.303 64.78C139.458 64.6799 139.536 64.5409 139.536 64.363C139.536 64.174 139.458 64.0072 139.303 63.8626C139.158 63.707 138.925 63.6292 138.602 63.6292C138.291 63.6292 138.052 63.7292 137.885 63.9294C137.718 64.1184 137.635 64.313 137.635 64.5131Z" fill="#F86BC2"/>
<path d="M122.241 58.3087C122.241 59.5369 121.246 60.5325 120.018 60.5325C118.789 60.5325 117.794 59.5369 117.794 58.3087C117.794 57.0806 118.789 56.085 120.018 56.085C121.246 56.085 122.241 57.0806 122.241 58.3087Z" fill="#F86BC2"/>
<path d="M119.971 69.1663C119.148 69.1774 118.425 69.0107 117.803 68.666C117.191 68.3102 116.707 67.8321 116.352 67.2316C116.007 66.6201 115.823 65.9474 115.801 65.2135C115.79 64.4575 115.962 63.7903 116.318 63.2121C116.674 62.6228 117.169 62.1558 117.803 61.8112C118.436 61.4665 119.159 61.2941 119.971 61.2941C120.771 61.283 121.477 61.4498 122.089 61.7945C122.712 62.1392 123.206 62.6062 123.573 63.1955C123.94 63.7848 124.135 64.4575 124.157 65.2135C124.168 65.9363 123.996 66.5979 123.64 67.1983C123.284 67.7876 122.789 68.2601 122.156 68.6159C121.522 68.9606 120.794 69.1441 119.971 69.1663ZM120.021 66.7313C120.321 66.7313 120.582 66.6145 120.805 66.381C121.027 66.1475 121.138 65.8751 121.138 65.5638C121.138 65.2525 121.027 64.9856 120.805 64.7632C120.582 64.5297 120.321 64.413 120.021 64.413C119.721 64.413 119.459 64.5297 119.237 64.7632C119.015 64.9856 118.903 65.2525 118.903 65.5638C118.903 65.8751 119.015 66.1475 119.237 66.381C119.459 66.6145 119.721 66.7313 120.021 66.7313Z" fill="#F86BC2"/>
<path d="M131.861 69.1497C131.416 69.1497 131.099 69.0273 130.91 68.7827C130.732 68.527 130.627 68.2101 130.594 67.8321C130.56 67.4429 130.543 67.0537 130.543 66.6646C130.543 66.0753 130.46 65.6027 130.293 65.2469C130.127 64.88 129.832 64.6965 129.409 64.6965C129.031 64.6965 128.753 64.88 128.575 65.2469C128.398 65.6027 128.309 66.0753 128.309 66.6646C128.309 67.0537 128.292 67.4373 128.259 67.8154C128.236 68.1934 128.136 68.5103 127.958 68.766C127.78 69.0107 127.458 69.133 126.991 69.133C126.646 69.133 126.357 69.0051 126.124 68.7494C125.901 68.4936 125.729 68.1601 125.607 67.7487C125.484 67.3373 125.395 66.8925 125.34 66.4144C125.295 65.9363 125.273 65.4748 125.273 65.0301C125.273 64.5853 125.295 64.1295 125.34 63.6625C125.384 63.1955 125.462 62.7618 125.573 62.3615C125.696 61.9613 125.868 61.6388 126.09 61.3942C126.313 61.1496 126.602 61.0273 126.958 61.0273C127.591 61.0273 127.986 61.3164 128.142 61.8946C128.275 61.75 128.486 61.6166 128.776 61.4943C129.076 61.3608 129.415 61.2941 129.793 61.2941C130.649 61.2941 131.35 61.5109 131.894 61.9446C132.439 62.3782 132.834 62.9786 133.079 63.7458C133.334 64.5019 133.457 65.3803 133.446 66.381C133.446 66.8925 133.395 67.3595 133.295 67.782C133.206 68.1934 133.045 68.527 132.812 68.7827C132.589 69.0273 132.272 69.1497 131.861 69.1497Z" fill="#F86BC2"/>
<path d="M109.917 69.1497C109.361 69.1497 108.8 69.133 108.233 69.0997C107.677 69.0552 107.165 68.9551 106.698 68.7995C106.243 68.6327 105.876 68.3769 105.598 68.0322C105.32 67.6876 105.181 67.215 105.181 66.6146C105.181 66.2254 105.32 65.8307 105.598 65.4304C105.876 65.019 106.226 64.6187 106.648 64.2296C107.082 63.8293 107.544 63.4512 108.033 63.0954C108.522 62.7396 108.972 62.4172 109.384 62.1281C108.939 62.1726 108.455 62.1837 107.933 62.1615C107.41 62.1392 106.915 62.0558 106.448 61.9113C105.981 61.7667 105.598 61.5444 105.297 61.2441C104.997 60.9439 104.847 60.5437 104.847 60.0433C104.847 59.4318 105.042 58.9425 105.431 58.5756C105.82 58.2087 106.343 57.9418 106.999 57.775C107.666 57.6083 108.4 57.5249 109.2 57.5249C109.923 57.5249 110.618 57.5638 111.285 57.6416C111.963 57.7083 112.569 57.8473 113.103 58.0586C113.637 58.2587 114.059 58.5645 114.371 58.9759C114.693 59.3762 114.854 59.9099 114.854 60.577C114.854 61.0774 114.737 61.5499 114.504 61.9947C114.282 62.4394 113.981 62.8564 113.603 63.2455C113.225 63.6347 112.803 63.9961 112.336 64.3296C111.88 64.6521 111.418 64.9467 110.951 65.2136C111.452 65.2247 111.935 65.2525 112.402 65.297C112.869 65.3415 113.281 65.4304 113.637 65.5638C114.004 65.6862 114.293 65.8752 114.504 66.1309C114.715 66.3866 114.821 66.7313 114.821 67.165C114.821 67.6653 114.66 68.0545 114.337 68.3325C114.026 68.5993 113.62 68.7939 113.12 68.9162C112.619 69.0274 112.086 69.0941 111.519 69.1163C110.951 69.1386 110.418 69.1497 109.917 69.1497Z" stroke="#F86BC2" mask="url(#path-6-inside-2_515_824)"/>
<path d="M138.752 69.1497C137.918 69.1497 137.184 68.9885 136.551 68.666C135.928 68.3325 135.439 67.8821 135.083 67.3151C134.738 66.7369 134.566 66.0753 134.566 65.3303C134.566 64.6076 134.738 63.9405 135.083 63.3289C135.439 62.7174 135.922 62.2282 136.534 61.8612C137.157 61.4943 137.868 61.3109 138.669 61.3109C139.414 61.3109 140.053 61.461 140.587 61.7612C141.121 62.0614 141.526 62.445 141.804 62.912C142.093 63.3679 142.238 63.8515 142.238 64.363C142.238 64.8745 142.121 65.297 141.888 65.6306C141.654 65.953 141.349 66.2032 140.97 66.3811C140.604 66.5479 140.209 66.6591 139.786 66.7146C139.364 66.7702 138.958 66.7814 138.569 66.748C138.18 66.7035 137.852 66.6368 137.585 66.5479C137.785 66.8703 138.035 67.0927 138.335 67.215C138.647 67.3262 138.969 67.3762 139.303 67.3651C139.647 67.3429 139.959 67.304 140.237 67.2484C140.581 67.1705 140.865 67.1872 141.087 67.2984C141.31 67.4096 141.426 67.5875 141.437 67.8321C141.449 68.0322 141.376 68.2324 141.221 68.4325C141.076 68.6327 140.809 68.805 140.42 68.9496C140.031 69.083 139.475 69.1497 138.752 69.1497ZM137.635 64.5131C137.746 64.691 137.907 64.8189 138.118 64.8967C138.33 64.9634 138.541 64.9857 138.752 64.9634C138.975 64.9412 139.158 64.88 139.303 64.78C139.458 64.6799 139.536 64.5409 139.536 64.363C139.536 64.174 139.458 64.0072 139.303 63.8626C139.158 63.707 138.925 63.6292 138.602 63.6292C138.291 63.6292 138.052 63.7292 137.885 63.9294C137.718 64.1184 137.635 64.313 137.635 64.5131Z" stroke="#F86BC2" mask="url(#path-6-inside-2_515_824)"/>
<path d="M122.241 58.3087C122.241 59.5369 121.246 60.5325 120.018 60.5325C118.789 60.5325 117.794 59.5369 117.794 58.3087C117.794 57.0806 118.789 56.085 120.018 56.085C121.246 56.085 122.241 57.0806 122.241 58.3087Z" stroke="#F86BC2" mask="url(#path-6-inside-2_515_824)"/>
<path d="M119.971 69.1663C119.148 69.1774 118.425 69.0107 117.803 68.666C117.191 68.3102 116.707 67.8321 116.352 67.2316C116.007 66.6201 115.823 65.9474 115.801 65.2135C115.79 64.4575 115.962 63.7903 116.318 63.2121C116.674 62.6228 117.169 62.1558 117.803 61.8112C118.436 61.4665 119.159 61.2941 119.971 61.2941C120.771 61.283 121.477 61.4498 122.089 61.7945C122.712 62.1392 123.206 62.6062 123.573 63.1955C123.94 63.7848 124.135 64.4575 124.157 65.2135C124.168 65.9363 123.996 66.5979 123.64 67.1983C123.284 67.7876 122.789 68.2601 122.156 68.6159C121.522 68.9606 120.794 69.1441 119.971 69.1663ZM120.021 66.7313C120.321 66.7313 120.582 66.6145 120.805 66.381C121.027 66.1475 121.138 65.8751 121.138 65.5638C121.138 65.2525 121.027 64.9856 120.805 64.7632C120.582 64.5297 120.321 64.413 120.021 64.413C119.721 64.413 119.459 64.5297 119.237 64.7632C119.015 64.9856 118.903 65.2525 118.903 65.5638C118.903 65.8751 119.015 66.1475 119.237 66.381C119.459 66.6145 119.721 66.7313 120.021 66.7313Z" stroke="#F86BC2" mask="url(#path-6-inside-2_515_824)"/>
<path d="M131.861 69.1497C131.416 69.1497 131.099 69.0273 130.91 68.7827C130.732 68.527 130.627 68.2101 130.594 67.8321C130.56 67.4429 130.543 67.0537 130.543 66.6646C130.543 66.0753 130.46 65.6027 130.293 65.2469C130.127 64.88 129.832 64.6965 129.409 64.6965C129.031 64.6965 128.753 64.88 128.575 65.2469C128.398 65.6027 128.309 66.0753 128.309 66.6646C128.309 67.0537 128.292 67.4373 128.259 67.8154C128.236 68.1934 128.136 68.5103 127.958 68.766C127.78 69.0107 127.458 69.133 126.991 69.133C126.646 69.133 126.357 69.0051 126.124 68.7494C125.901 68.4936 125.729 68.1601 125.607 67.7487C125.484 67.3373 125.395 66.8925 125.34 66.4144C125.295 65.9363 125.273 65.4748 125.273 65.0301C125.273 64.5853 125.295 64.1295 125.34 63.6625C125.384 63.1955 125.462 62.7618 125.573 62.3615C125.696 61.9613 125.868 61.6388 126.09 61.3942C126.313 61.1496 126.602 61.0273 126.958 61.0273C127.591 61.0273 127.986 61.3164 128.142 61.8946C128.275 61.75 128.486 61.6166 128.776 61.4943C129.076 61.3608 129.415 61.2941 129.793 61.2941C130.649 61.2941 131.35 61.5109 131.894 61.9446C132.439 62.3782 132.834 62.9786 133.079 63.7458C133.334 64.5019 133.457 65.3803 133.446 66.381C133.446 66.8925 133.395 67.3595 133.295 67.782C133.206 68.1934 133.045 68.527 132.812 68.7827C132.589 69.0273 132.272 69.1497 131.861 69.1497Z" stroke="#F86BC2" mask="url(#path-6-inside-2_515_824)"/>
</svg>
